<?xml version="1.0" encoding="UTF-8" standalone="no"?>
<!-- Created with Inkscape (http://www.inkscape.org/) -->

<svg
   width="210mm"
   height="297mm"
   viewBox="0 0 210 297"
   version="1.1"
   id="svg5"
   inkscape:version="1.2 (dc2aedaf03, 2022-05-15)"
   sodipodi:docname="canard mehdi.svg"
   xmlns:inkscape="http://www.inkscape.org/namespaces/inkscape"
   xmlns:sodipodi="http://sodipodi.sourceforge.net/DTD/sodipodi-0.dtd"
   xmlns="http://www.w3.org/2000/svg"
   xmlns:svg="http://www.w3.org/2000/svg">
  <sodipodi:namedview
     id="namedview7"
     pagecolor="#ffffff"
     bordercolor="#000000"
     borderopacity="0.25"
     inkscape:showpageshadow="2"
     inkscape:pageopacity="0.0"
     inkscape:pagecheckerboard="0"
     inkscape:deskcolor="#d1d1d1"
     inkscape:document-units="mm"
     showgrid="false"
     inkscape:zoom="2.1089995"
     inkscape:cx="298.24568"
     inkscape:cy="39.355153"
     inkscape:window-width="1920"
     inkscape:window-height="1017"
     inkscape:window-x="1912"
     inkscape:window-y="-8"
     inkscape:window-maximized="1"
     inkscape:current-layer="layer1" />
  <defs
     id="defs2">
    <linearGradient
       id="linearGradient1519"
       inkscape:swatch="solid">
      <stop
         style="stop-color:#000000;stop-opacity:1;"
         offset="0"
         id="stop1517" />
    </linearGradient>
  </defs>
  <g
     inkscape:label="Calque 1"
     inkscape:groupmode="layer"
     id="layer1">
    <ellipse
       style="fill:none;stroke-width:0.264583;fill-opacity:1;stroke:#000000;stroke-opacity:1"
       id="path1515"
       cx="95.659004"
       cy="25.216341"
       rx="6.0845394"
       ry="5.018177" />
    <path
       style="fill:none;fill-opacity:1;stroke:#000000;stroke-width:0.264583;stroke-opacity:1"
       d="M 88.319916,25.718158 66.490847,25.21634 51.310862,28.227247 37.385418,25.21634 19.319982,27.474521 21.703616,32.367243 37.636328,25.21634"
       id="path1633" />
    <path
       style="fill:none;fill-opacity:1;stroke:#000000;stroke-width:0.264583;stroke-opacity:1"
       d="m 70.129026,25.21634 44.285414,7.025449"
       id="path1635" />
    <path
       style="fill:none;fill-opacity:1;stroke:#000000;stroke-width:0.265;stroke-opacity:1;stroke-dasharray:0.26499999,0.79499996;stroke-dashoffset:0"
       d="m 2.7599973,30.359971 c 0.5739577,-0.07502 0.9545682,-0.443642 1.5054532,-0.627271 0.2837688,-0.09459 0.583605,-0.103622 0.8781809,-0.25091 0.2885607,-0.14428 0.4463897,-0.299778 0.7527266,-0.376362 0.1622783,-0.04057 0.3395396,0.04057 0.5018178,0 0.365334,-0.09133 0.6762567,-0.338129 1.0036355,-0.501819 0.3905017,-0.195249 0.8276412,-0.284885 1.2545443,-0.376362 0.5733299,-0.122856 1.1808317,-0.261257 1.7563614,-0.376364 0.246037,-0.04921 0.50434,0.03548 0.752727,0 0.261823,-0.0374 0.496142,-0.186762 0.752727,-0.25091 0.480468,-0.120116 0.945015,0.09204 1.379998,-0.125452 0.310939,-0.155472 2.752484,0 3.136361,0 1.059617,0 2.084497,0.0086 3.136361,0.125452 0.401454,0.04461 0.557575,-0.07434 1.003635,0 0.300299,0.05005 0.58099,0.184867 0.878181,0.25091 0.399136,0.0887 0.853188,-0.08027 1.254544,0 0.539419,0.107884 1.066831,0.421235 1.630908,0.501816 0.165591,0.02365 0.336226,-0.02365 0.501818,0 0.589305,0.08419 1.182095,0.358251 1.756363,0.50182 0.771226,0.192807 1.653524,0.262218 2.383634,0.627271 0.700156,0.350078 1.392676,0.756955 2.132724,1.003636 0.198361,0.06612 0.421026,-0.03437 0.627271,0 0.255257,-0.04357 0.406448,0.206743 0.627274,0.25091 0.123018,0.02461 0.257345,-0.03967 0.376362,0 0.143039,0.04768 0.236371,0.19491 0.376365,0.250907 0.194135,0.07766 0.424423,-0.05071 0.627271,0 0.05738,0.01434 0.07256,0.09901 0.125455,0.125455 0.134811,0.0674 0.356669,-0.04838 0.501817,0 0.908719,0.302905 -0.197792,-0.03617 0.376364,0.250909 0.158216,0.07911 0.597178,-0.02222 0.752727,0 0.323725,-0.129733 0.493381,0.199038 0.752726,0.250907 0.645414,0.129085 1.35455,-0.09324 2.007269,0 1.005441,0.143635 1.991707,0.125455 3.010908,0.125455 1.977512,0 3.921903,-0.04647 5.896359,-0.125455 1.040834,-0.04163 2.460561,0.175361 3.512722,0 0.418793,-0.0698 0.833956,-0.323789 1.254546,-0.376361 0.24897,-0.03112 0.501816,0 0.752726,0 0.08364,0 0.181319,0.04639 0.25091,0 0.0778,-0.05187 0.04765,-0.199041 0.125452,-0.25091 0.126346,-0.08423 0.967573,-0.03568 1.254546,-0.250907 0.68731,-0.515485 1.436235,-0.983086 2.132724,-1.505455 0.263564,-0.197671 0.469614,-0.457404 0.752726,-0.627272 0.320731,-0.192437 0.699273,-0.284414 1.003636,-0.501817 0.144373,-0.103124 0.225912,-0.282331 0.376365,-0.376364 0.190965,-0.119354 0.413631,-0.179695 0.627271,-0.250907 0.03967,-0.01323 0.09589,0.02957 0.125455,0 0.02957,-0.02957 -0.0374,-0.106754 0,-0.125455 0.07481,-0.0374 0.176101,0.0374 0.250907,0 0.105794,-0.0529 0.145119,-0.198014 0.25091,-0.25091 0.0748,-0.0374 0.173254,0.03106 0.250909,0 0.194136,-0.07766 0.303456,-0.310242 0.501817,-0.376364 0.119017,-0.03967 0.264155,0.0561 0.376364,0 0.105791,-0.0529 0.13616,-0.222221 0.250907,-0.250907 0.24342,-0.06086 0.519764,0.09318 0.752729,0 0.109818,-0.04393 0.14109,-0.206982 0.250907,-0.25091 0.232963,-0.09319 0.50931,0.06086 0.752727,0 0.05738,-0.01434 0.06935,-0.106752 0.125455,-0.125454 0.477631,-0.15921 3.289739,0 4.014541,0 1.051975,0 2.214271,-0.130943 3.261815,0 0.469217,0.05865 1.076431,0.161851 1.505453,0.376364 0.134861,0.06743 0.236371,0.19491 0.376364,0.250907 0.252177,0.100872 0.751457,0.15004 1.003636,0.25091 0.139994,0.056 0.231386,0.209486 0.376362,0.250909 0.160838,0.04595 0.340982,-0.04595 0.501819,0 0.144976,0.04142 0.241504,0.183478 0.376362,0.25091 0.475859,0.237929 1.133274,0.335939 1.630908,0.501817 0.519999,0.173333 0.995315,0.435969 1.505453,0.627271 0.340484,0.127683 0.672494,0.168124 1.003636,0.25091 0.181432,0.04536 0.320386,0.205549 0.501819,0.250909 0.08114,0.02029 0.173254,-0.03106 0.250907,0 0.506481,0.202592 0.959059,0.616128 1.505453,0.752727 0.162279,0.04057 0.340981,-0.04596 0.501819,0 0.144976,0.04142 0.231944,0.207581 0.376362,0.250907 0.494935,0.148481 1.594299,0.268679 2.132727,0.376364 0.183385,0.03668 0.318431,0.214231 0.501816,0.25091 0.461203,0.09224 1.033039,0 1.505453,0 1.170908,0 2.341816,0 3.512725,0 1.008827,0 2.138817,0.142504 3.13636,0 0.491384,-0.0702 1.281544,-0.218091 1.756362,-0.376365 0.291635,-0.09721 0.581258,-0.302133 0.878181,-0.376364 1.431327,-0.357831 2.928501,-0.836978 4.265451,-1.505453 0.154218,-0.07711 0.341728,-0.06142 0.501817,-0.125455 0.539362,-0.215741 1.091432,-0.411482 1.630912,-0.627271 0.25047,-0.10019 0.37109,-0.290973 0.62727,-0.376362 0.14582,-0.04861 0.36896,-0.05903 0.50182,-0.125455 0.57415,-0.287078 -0.53236,0.052 0.37636,-0.250909 0.2056,-0.06853 0.57531,-0.03675 0.75272,-0.125455 0.0529,-0.02646 0.0836,-0.08364 0.12546,-0.125455 0.16727,-0.08364 0.32818,-0.181451 0.50182,-0.250907 0.11648,-0.04659 0.25334,0.02461 0.37636,0 0.25935,-0.05187 0.50716,-0.152684 0.75273,-0.25091 0.13999,-0.056 0.23332,-0.203228 0.37636,-0.250908 0.15869,-0.0529 0.33682,0.0275 0.50182,0 2.02355,-0.337258 4.0771,-0.514375 6.14727,-0.376364 0.89312,0.05954 1.75462,0.240991 2.63454,0.376364 0.45653,0.07023 0.9291,0.02525 1.38,0.125454 0.25818,0.05737 0.49251,0.203597 0.75272,0.250909 0.20572,0.0374 0.41819,0 0.62728,0 0.29272,0.04182 0.59005,0.05896 0.87818,0.125455 1.03123,0.237977 0.72513,0.26384 1.75636,0.501817 0.36898,0.08515 0.76172,0.03361 1.12909,0.125454 0.18143,0.04536 0.322,0.199531 0.50182,0.25091 0.12062,0.03447 0.25734,-0.03967 0.37636,0 0.24827,0.08276 0.41886,0.272153 0.62727,0.376362 0.32098,0.160488 0.69066,0.146584 1.00364,0.25091 0.35484,0.118279 0.66184,0.349908 1.00363,0.501816 0.46174,0.205219 0.90839,0.445884 1.38,0.627274 0.28415,0.109287 0.59998,0.127262 0.87818,0.250907 0.24183,0.241832 0.20457,0.257464 0.50182,0.376365 0.90929,0.363717 1.70259,1.069348 2.63454,1.379998 0.0794,0.02646 0.17157,-0.02646 0.25091,0 0.23133,0.07711 0.40315,0.28031 0.62728,0.376364 0.51513,0.220774 0.3491,0.05455 1.00363,0.250907 0.2157,0.06471 0.4088,0.196292 0.62727,0.25091 0.12171,0.03043 0.25262,-0.02064 0.37636,0 0.51668,0.08611 1.01023,0.252558 1.50546,0.376364 0.16228,0.04057 0.33779,-0.03281 0.50182,0 0.5016,0.10032 1.0005,0.178771 1.50545,0.250907 0.34138,0.04877 0.66549,0.18328 1.00364,0.25091 0.42897,0.08579 2.19468,0.08797 2.63454,0 1.05628,-0.211256 0.004,-0.0019 0.50182,-0.25091 0.61158,-0.305789 0.15465,0.07066 0.87818,-0.250907 0.62635,-0.278378 1.1272,-0.877427 1.75636,-1.12909 0.0777,-0.03106 0.16977,0.02029 0.25091,0 0.27215,-0.06804 0.48909,-0.280496 0.75273,-0.376365 0.61394,-0.223253 1.28339,-0.370803 1.88181,-0.627271 0.13859,-0.05939 0.23778,-0.191514 0.37636,-0.25091 0.15848,-0.06792 0.35212,-0.03991 0.50182,-0.125452 0.15404,-0.08803 0.23199,-0.273241 0.37637,-0.376365 0.22827,-0.163052 0.5283,-0.208047 0.75272,-0.376362 0.70862,-0.531463 1.27157,-1.140436 2.00727,-1.630907"
       id="path2435" />
    <ellipse
       style="fill:none;fill-opacity:1;stroke:#000000;stroke-width:0.264583;stroke-opacity:1"
       id="path1515-7"
       cx="105.82983"
       cy="78.689964"
       rx="6.0845394"
       ry="5.018177" />
    <path
       style="fill:none;fill-opacity:1;stroke:#000000;stroke-width:0.265;stroke-dasharray:0.265, 0.795;stroke-dashoffset:0;stroke-opacity:1"
       d="m 4.9017452,56.233622 c 0.5739581,-0.07502 0.9545681,-0.443642 1.5054531,-0.627271 0.283769,-0.09459 0.583605,-0.103622 0.878181,-0.25091 0.288561,-0.14428 0.44639,-0.299778 0.752727,-0.376362 0.162278,-0.04057 0.339539,0.04057 0.501817,0 0.365334,-0.09133 0.676257,-0.338129 1.003636,-0.501819 0.390502,-0.195249 0.8276407,-0.284885 1.2545437,-0.376362 0.57333,-0.122856 1.180832,-0.261257 1.756362,-0.376364 0.246037,-0.04921 0.50434,0.03548 0.752727,0 0.261823,-0.0374 0.496142,-0.186762 0.752727,-0.25091 0.480468,-0.120116 0.945015,0.09204 1.379998,-0.125452 0.310939,-0.155472 2.752484,0 3.136361,0 1.059617,0 2.084497,0.0086 3.136361,0.125452 0.401454,0.04461 0.557575,-0.07434 1.003635,0 0.300299,0.05005 0.58099,0.184867 0.878181,0.25091 0.399136,0.0887 0.853188,-0.08027 1.254544,0 0.539419,0.107884 1.066831,0.421235 1.630908,0.501816 0.165591,0.02365 0.336226,-0.02365 0.501818,0 0.589305,0.08419 1.182095,0.358251 1.756363,0.50182 0.771226,0.192807 1.653524,0.262218 2.383634,0.627271 0.700156,0.350078 1.392676,0.756955 2.132724,1.003636 0.198361,0.06612 0.421026,-0.03437 0.627271,0 0.255257,-0.04357 0.406448,0.206743 0.627274,0.25091 0.123018,0.02461 0.257345,-0.03967 0.376362,0 0.143039,0.04768 0.236371,0.19491 0.376365,0.250907 0.194135,0.07766 0.424423,-0.05071 0.627271,0 0.05738,0.01434 0.07256,0.09901 0.125455,0.125455 0.134811,0.0674 0.356669,-0.04838 0.501817,0 0.908719,0.302905 -0.197792,-0.03617 0.376364,0.250909 0.158216,0.07911 0.597178,-0.02222 0.752727,0 0.323725,-0.129733 0.493381,0.199038 0.752726,0.250907 0.645414,0.129085 1.35455,-0.09324 2.007269,0 1.005441,0.143635 1.991707,0.125455 3.010908,0.125455 1.977512,0 3.921903,-0.04647 5.896359,-0.125455 1.040834,-0.04163 2.460561,0.175361 3.512722,0 0.418793,-0.0698 0.833956,-0.323789 1.254546,-0.376361 0.24897,-0.03112 0.501816,0 0.752726,0 0.08364,0 0.181319,0.04639 0.25091,0 0.0778,-0.05187 0.04765,-0.199041 0.125452,-0.25091 0.126346,-0.08423 0.967573,-0.03568 1.254546,-0.250907 0.68731,-0.515485 1.436235,-0.983086 2.132724,-1.505455 0.263564,-0.197671 0.469614,-0.457404 0.752726,-0.627272 0.320731,-0.192437 0.699273,-0.284414 1.003636,-0.501817 0.144373,-0.103124 0.225912,-0.282331 0.376365,-0.376364 0.190965,-0.119354 0.413631,-0.179695 0.627271,-0.250907 0.03967,-0.01323 0.09589,0.02957 0.125455,0 0.02957,-0.02957 -0.0374,-0.106754 0,-0.125455 0.07481,-0.0374 0.176101,0.0374 0.250907,0 0.105794,-0.0529 0.145119,-0.198014 0.25091,-0.25091 0.0748,-0.0374 0.173254,0.03106 0.250909,0 0.194136,-0.07766 0.303456,-0.310242 0.501817,-0.376364 0.119017,-0.03967 0.264155,0.0561 0.376364,0 0.105791,-0.0529 0.13616,-0.222221 0.250907,-0.250907 0.24342,-0.06086 0.519764,0.09318 0.752729,0 0.109818,-0.04393 0.14109,-0.206982 0.250907,-0.25091 0.232963,-0.09319 0.50931,0.06086 0.752727,0 0.05738,-0.01434 0.06935,-0.106752 0.125455,-0.125454 0.477631,-0.15921 3.289739,0 4.014541,0 1.051975,0 2.214271,-0.130943 3.261815,0 0.469217,0.05865 1.076431,0.161851 1.505453,0.376364 0.134861,0.06743 0.236371,0.19491 0.376364,0.250907 0.252177,0.100872 0.751457,0.15004 1.003636,0.25091 0.139994,0.056 0.231386,0.209486 0.376362,0.250909 0.160838,0.04595 0.340982,-0.04595 0.501819,0 0.144976,0.04142 0.241504,0.183478 0.376362,0.25091 0.475859,0.237929 1.133274,0.335939 1.630908,0.501817 0.519999,0.173333 0.995315,0.435969 1.505453,0.627271 0.340484,0.127683 0.672494,0.168124 1.003636,0.25091 0.181432,0.04536 0.320386,0.205549 0.501819,0.250909 0.08114,0.02029 0.173254,-0.03106 0.250907,0 0.506481,0.202592 0.959059,0.616128 1.505453,0.752727 0.162279,0.04057 0.340981,-0.04596 0.501819,0 0.144976,0.04142 0.231944,0.207581 0.376362,0.250907 0.494935,0.148481 1.594299,0.268679 2.132727,0.376364 0.183385,0.03668 0.318431,0.214231 0.501816,0.25091 0.461203,0.09224 1.033039,0 1.505453,0 1.170908,0 2.341816,0 3.512725,0 1.008827,0 2.138817,0.142504 3.13636,0 0.491382,-0.0702 1.281542,-0.218091 1.756362,-0.376365 0.29163,-0.09721 0.58126,-0.302133 0.87818,-0.376364 1.43133,-0.357831 2.928503,-0.836978 4.265453,-1.505453 0.15422,-0.07711 0.34173,-0.06142 0.50182,-0.125455 0.53936,-0.215741 1.09143,-0.411482 1.63091,-0.627271 0.25047,-0.10019 0.37109,-0.290973 0.62727,-0.376362 0.14582,-0.04861 0.36896,-0.05903 0.50182,-0.125455 0.57415,-0.287078 -0.53236,0.052 0.37636,-0.250909 0.2056,-0.06853 0.57531,-0.03675 0.75272,-0.125455 0.0529,-0.02646 0.0836,-0.08364 0.12546,-0.125455 0.16727,-0.08364 0.32818,-0.181451 0.50182,-0.250907 0.11648,-0.04659 0.25334,0.02461 0.37636,0 0.25935,-0.05187 0.50716,-0.152684 0.75273,-0.25091 0.13999,-0.056 0.23332,-0.203228 0.37636,-0.250908 0.15869,-0.0529 0.33682,0.0275 0.50182,0 2.02355,-0.337258 4.0771,-0.514375 6.14727,-0.376364 0.89312,0.05954 1.75462,0.240991 2.63454,0.376364 0.45653,0.07023 0.9291,0.02525 1.38,0.125454 0.25818,0.05737 0.49251,0.203597 0.75272,0.250909 0.20572,0.0374 0.41819,0 0.62728,0 0.29272,0.04182 0.59005,0.05896 0.87818,0.125455 1.03123,0.237977 0.72513,0.26384 1.75636,0.501817 0.36898,0.08515 0.76172,0.03361 1.12909,0.125454 0.18143,0.04536 0.322,0.199531 0.50182,0.25091 0.12062,0.03447 0.25734,-0.03967 0.37636,0 0.24827,0.08276 0.41886,0.272153 0.62727,0.376362 0.32098,0.160488 0.69066,0.146584 1.00364,0.25091 0.35484,0.118279 0.66184,0.349908 1.00363,0.501816 0.46174,0.205219 0.90839,0.445884 1.38,0.627274 0.28415,0.109287 0.59998,0.127262 0.87818,0.250907 0.24183,0.241832 0.20457,0.257464 0.50182,0.376365 0.90929,0.363717 1.70259,1.069348 2.63454,1.379998 0.0794,0.02646 0.17157,-0.02646 0.25091,0 0.23133,0.07711 0.40315,0.28031 0.62728,0.376364 0.51513,0.220774 0.3491,0.05455 1.00363,0.250907 0.2157,0.06471 0.4088,0.196292 0.62727,0.25091 0.12171,0.03043 0.25262,-0.02064 0.37636,0 0.51668,0.08611 1.01023,0.252558 1.50546,0.376364 0.16228,0.04057 0.33779,-0.03281 0.50182,0 0.5016,0.10032 1.0005,0.178771 1.50545,0.250907 0.34138,0.04877 0.66549,0.18328 1.00364,0.25091 0.42897,0.08579 2.19468,0.08797 2.63454,0 1.05628,-0.211256 0.004,-0.0019 0.50182,-0.25091 0.61158,-0.305789 0.15465,0.07066 0.87818,-0.250907 0.62635,-0.278378 1.1272,-0.877427 1.75636,-1.12909 0.0777,-0.03106 0.16977,0.02029 0.25091,0 0.27215,-0.06804 0.48909,-0.280496 0.75273,-0.376365 0.61394,-0.223253 1.28339,-0.370803 1.88181,-0.627271 0.13859,-0.05939 0.23778,-0.191514 0.37636,-0.25091 0.15848,-0.06792 0.35212,-0.03991 0.50182,-0.125452 0.15404,-0.08803 0.23199,-0.273241 0.37637,-0.376365 0.22827,-0.163052 0.5283,-0.208047 0.75272,-0.376362 0.70862,-0.531463 1.27157,-1.140436 2.00727,-1.630907"
       id="path2435-4" />
    <path
       style="fill:none;fill-opacity:1;stroke:#000000;stroke-width:0.210051;stroke-dasharray:none;stroke-dashoffset:0;stroke-opacity:1"
       d="m 99.703175,90.098395 v -15.39415 l 2.370295,-0.250312 0.079,-16.395393 -20.542535,3.504359 -15.880961,-3.754671 -17.461156,5.632005 v -8.260275 l 17.224125,2.377961"
       id="path2584" />
    <ellipse
       style="fill:none;fill-opacity:1;stroke:#000000;stroke-width:0.264583;stroke-opacity:1"
       id="path1515-7-8"
       cx="113.10618"
       cy="100.95157"
       rx="6.0845394"
       ry="5.018177" />
    <path
       style="fill:none;fill-opacity:1;stroke:#000000;stroke-width:0.265;stroke-dasharray:0.265, 0.795;stroke-dashoffset:0;stroke-opacity:1"
       d="m 7.9126504,102.58248 c 0.5739581,-0.075 0.9545681,-0.44365 1.5054526,-0.62727 0.28377,-0.0946 0.583605,-0.10363 0.878181,-0.25091 0.288561,-0.14428 0.44639,-0.29978 0.752727,-0.37637 0.162278,-0.0406 0.339539,0.0406 0.501817,0 0.365334,-0.0913 0.676257,-0.33813 1.003636,-0.50182 0.390502,-0.19524 0.827641,-0.28488 1.254544,-0.37636 0.57333,-0.12285 1.180832,-0.26125 1.756362,-0.37636 0.246037,-0.0492 0.50434,0.0355 0.752727,0 0.261823,-0.0374 0.496142,-0.186764 0.752727,-0.250912 0.480468,-0.120116 0.945015,0.09204 1.379998,-0.125452 0.310939,-0.155472 2.752484,0 3.136361,0 1.059617,0 2.084497,0.0086 3.136361,0.125452 0.401454,0.04461 0.557575,-0.07434 1.003635,0 0.300299,0.05005 0.58099,0.184872 0.878181,0.250912 0.399136,0.0887 0.853188,-0.08027 1.254544,0 0.539419,0.10788 1.066831,0.42123 1.630908,0.50181 0.165591,0.0237 0.336226,-0.0236 0.501818,0 0.589305,0.0842 1.182095,0.35826 1.756363,0.50182 0.771226,0.19281 1.653524,0.26222 2.383634,0.62728 0.700156,0.35007 1.392676,0.75695 2.132724,1.00363 0.198361,0.0661 0.421026,-0.0344 0.627271,0 0.255257,-0.0436 0.406448,0.20674 0.627274,0.25091 0.123018,0.0246 0.257345,-0.0397 0.376362,0 0.143039,0.0477 0.236371,0.19491 0.376365,0.25091 0.194135,0.0777 0.424423,-0.0507 0.627271,0 0.05738,0.0143 0.07256,0.099 0.125455,0.12545 0.134811,0.0674 0.356669,-0.0484 0.501817,0 0.908719,0.30291 -0.197792,-0.0362 0.376364,0.25091 0.158216,0.0791 0.597178,-0.0222 0.752727,0 0.323725,-0.12973 0.493381,0.19904 0.752726,0.25091 0.645414,0.12908 1.35455,-0.0932 2.007269,0 1.005441,0.14363 1.991707,0.12545 3.010908,0.12545 1.977512,0 3.921903,-0.0465 5.896359,-0.12545 1.040834,-0.0416 2.460561,0.17536 3.512722,0 0.418793,-0.0698 0.833956,-0.32379 1.254546,-0.37636 0.24897,-0.0311 0.501816,0 0.752726,0 0.08364,0 0.181319,0.0464 0.25091,0 0.0778,-0.0519 0.04765,-0.19904 0.125452,-0.25091 0.126346,-0.0842 0.967573,-0.0357 1.254546,-0.25091 0.68731,-0.51548 1.436235,-0.98308 2.132724,-1.50545 0.263564,-0.19767 0.469614,-0.45741 0.752726,-0.62728 0.320731,-0.19243 0.699273,-0.28441 1.003636,-0.50181 0.144373,-0.10313 0.225912,-0.28233 0.376365,-0.376367 0.190965,-0.119354 0.413631,-0.179695 0.627271,-0.250907 0.03967,-0.01323 0.09589,0.02957 0.125455,0 0.02957,-0.02957 -0.0374,-0.106754 0,-0.125455 0.07481,-0.0374 0.176101,0.0374 0.250907,0 0.105794,-0.0529 0.145119,-0.198014 0.25091,-0.25091 0.0748,-0.0374 0.173254,0.03106 0.250909,0 0.194136,-0.07766 0.303456,-0.310242 0.501817,-0.376364 0.119017,-0.03967 0.264155,0.0561 0.376364,0 0.105791,-0.0529 0.13616,-0.222221 0.250907,-0.250907 0.24342,-0.06086 0.519764,0.09318 0.752729,0 0.109818,-0.04393 0.14109,-0.206982 0.250907,-0.25091 0.232963,-0.09319 0.50931,0.06086 0.752727,0 0.05738,-0.01434 0.06935,-0.106752 0.125455,-0.125454 0.477631,-0.15921 3.289739,0 4.014541,0 1.051975,0 2.214271,-0.130943 3.261815,0 0.469217,0.05865 1.076431,0.161851 1.505453,0.376364 0.134861,0.06743 0.236371,0.19491 0.376364,0.250907 0.252177,0.100872 0.751457,0.15004 1.003636,0.25091 0.139994,0.056 0.231386,0.209486 0.376362,0.250909 0.160838,0.04595 0.340982,-0.04595 0.501819,0 0.144976,0.04142 0.241504,0.183478 0.376362,0.25091 0.475859,0.237929 1.133274,0.335944 1.630908,0.501814 0.519999,0.17334 0.995315,0.43597 1.505453,0.62727 0.340484,0.12769 0.672494,0.16813 1.003636,0.25091 0.181432,0.0454 0.320386,0.20555 0.501819,0.25091 0.08114,0.0203 0.173254,-0.0311 0.250907,0 0.506481,0.2026 0.959059,0.61613 1.505453,0.75273 0.162279,0.0406 0.340981,-0.046 0.501819,0 0.144976,0.0414 0.231944,0.20758 0.376362,0.25091 0.494935,0.14848 1.594299,0.26868 2.132727,0.37636 0.183385,0.0367 0.318431,0.21423 0.501816,0.25091 0.461203,0.0922 1.033039,0 1.505453,0 1.170908,0 2.341816,0 3.512725,0 1.008827,0 2.138817,0.14251 3.13636,0 0.491382,-0.0702 1.281542,-0.21809 1.756359,-0.37636 0.29163,-0.0972 0.581261,-0.30214 0.878181,-0.37637 1.43133,-0.35783 2.92851,-0.83698 4.26546,-1.50545 0.15422,-0.0771 0.34173,-0.0614 0.50182,-0.12546 0.53936,-0.21574 1.09143,-0.41148 1.63091,-0.627267 0.25047,-0.10019 0.37109,-0.290973 0.62727,-0.376362 0.14582,-0.04861 0.36896,-0.05903 0.50182,-0.125455 0.57415,-0.287078 -0.53236,0.052 0.37636,-0.250909 0.2056,-0.06853 0.57531,-0.03675 0.75272,-0.125455 0.0529,-0.02646 0.0836,-0.08364 0.12546,-0.125455 0.16727,-0.08364 0.32818,-0.181451 0.50182,-0.250907 0.11648,-0.04659 0.25334,0.02461 0.37636,0 0.25935,-0.05187 0.50716,-0.152684 0.75273,-0.25091 0.13999,-0.056 0.23332,-0.203228 0.37636,-0.250908 0.15869,-0.0529 0.33682,0.0275 0.50182,0 2.02355,-0.337258 4.0771,-0.514375 6.14727,-0.376364 0.89312,0.05954 1.75462,0.240991 2.63454,0.376364 0.45653,0.07023 0.9291,0.02525 1.38,0.125454 0.25818,0.05737 0.49251,0.203597 0.75272,0.250909 0.20572,0.0374 0.41819,0 0.62728,0 0.29272,0.04182 0.59005,0.05896 0.87818,0.125455 1.03123,0.237977 0.72513,0.26384 1.75636,0.501817 0.36898,0.08515 0.76172,0.03361 1.12909,0.125454 0.18143,0.04536 0.322,0.199531 0.50182,0.25091 0.12062,0.03447 0.25734,-0.03967 0.37636,0 0.24827,0.08276 0.41886,0.272153 0.62727,0.376362 0.32098,0.160487 0.69066,0.146587 1.00364,0.250907 0.35484,0.11828 0.66184,0.34991 1.00363,0.50182 0.46174,0.20522 0.90839,0.44588 1.38,0.62727 0.28415,0.10929 0.59998,0.12727 0.87818,0.25091 0.24183,0.24183 0.20457,0.25746 0.50182,0.37637 0.90929,0.36371 1.70259,1.06934 2.63454,1.37999 0.0794,0.0265 0.17157,-0.0265 0.25091,0 0.23133,0.0771 0.40315,0.28031 0.62728,0.37637 0.51513,0.22077 0.3491,0.0546 1.00363,0.2509 0.2157,0.0647 0.4088,0.1963 0.62727,0.25091 0.12171,0.0304 0.25262,-0.0206 0.37636,0 0.51668,0.0861 1.01023,0.25256 1.50546,0.37637 0.16228,0.0406 0.33779,-0.0328 0.50182,0 0.5016,0.10032 1.0005,0.17877 1.50545,0.25091 0.34138,0.0488 0.66549,0.18328 1.00364,0.25091 0.42897,0.0858 2.19468,0.088 2.63454,0 1.05628,-0.21126 0.004,-0.002 0.50182,-0.25091 0.61158,-0.30579 0.15465,0.0707 0.87818,-0.25091 0.62635,-0.27838 1.1272,-0.87743 1.75636,-1.12909 0.0777,-0.0311 0.16977,0.0203 0.25091,0 0.27215,-0.068 0.48909,-0.2805 0.75273,-0.37637 0.61394,-0.22325 1.28339,-0.3708 1.88181,-0.62727 0.13859,-0.0594 0.23778,-0.19151 0.37636,-0.25091 0.15848,-0.0679 0.35212,-0.0399 0.50182,-0.12545 0.15404,-0.088 0.23199,-0.27324 0.37637,-0.37636 0.22827,-0.16306 0.5283,-0.20805 0.75272,-0.37637 0.70862,-0.53146 1.27157,-1.14043 2.00727,-1.630904"
       id="path2435-4-1" />
    <path
       style="fill:none;fill-opacity:1;stroke:#000000;stroke-width:0.264999;stroke-dasharray:none;stroke-dashoffset:0;stroke-opacity:1"
       d="m 71.759934,110.52535 34.876326,-5.89636 -0.37636,-5.143629 -35.503602,3.387269 -28.101793,-2.76 -25.969066,-1.003633 0.125454,7.652723 25.341796,-7.025449"
       id="path3352" />
    <path
       style="fill:none;fill-opacity:1;stroke:#000000;stroke-width:0.265;stroke-dasharray:0.265, 0.795;stroke-dashoffset:0;stroke-opacity:1"
       d="m 6.7835552,150.03428 c 0.573959,-0.075 0.954568,-0.44365 1.505453,-0.62726 0.28377,-0.0946 0.583605,-0.10363 0.878181,-0.25092 0.288561,-0.14428 0.44639,-0.29978 0.752727,-0.37637 0.1622778,-0.0406 0.3395388,0.0406 0.5018168,0 0.365334,-0.0913 0.676257,-0.33813 1.003636,-0.50181 0.390502,-0.19524 0.827641,-0.28488 1.254544,-0.37637 0.57333,-0.12284 1.180832,-0.26125 1.756362,-0.37635 0.246037,-0.0492 0.50434,0.0355 0.752727,0 0.261823,-0.0374 0.496142,-0.18677 0.752727,-0.25092 0.480468,-0.12011 0.945015,0.092 1.379998,-0.12545 0.310939,-0.15547 2.752484,0 3.136361,0 1.059617,0 2.084497,0.009 3.136361,0.12545 0.401454,0.0446 0.557575,-0.0743 1.003635,0 0.300299,0.05 0.58099,0.18487 0.878181,0.25092 0.399136,0.0887 0.853188,-0.0803 1.254544,0 0.539419,0.10787 1.066831,0.42122 1.630908,0.5018 0.165591,0.0237 0.336226,-0.0236 0.501818,0 0.589305,0.0842 1.182095,0.35827 1.756363,0.50182 0.771226,0.19282 1.653524,0.26223 2.383634,0.62728 0.700156,0.35007 1.392676,0.75695 2.132724,1.00363 0.198361,0.0661 0.421026,-0.0344 0.627271,0 0.255257,-0.0436 0.406448,0.20674 0.627274,0.25091 0.123018,0.0246 0.257345,-0.0397 0.376362,0 0.143039,0.0477 0.236371,0.19491 0.376365,0.25092 0.194135,0.0777 0.424423,-0.0507 0.627271,0 0.05738,0.0143 0.07256,0.099 0.125455,0.12545 0.134811,0.0674 0.356669,-0.0484 0.501817,0 0.908719,0.30291 -0.197792,-0.0362 0.376364,0.25091 0.158216,0.0791 0.597178,-0.0222 0.752727,0 0.323725,-0.12973 0.493381,0.19904 0.752726,0.25091 0.645414,0.12908 1.35455,-0.0932 2.007269,0 1.005441,0.14363 1.991707,0.12545 3.010908,0.12545 1.977512,0 3.921903,-0.0465 5.896359,-0.12545 1.040834,-0.0416 2.460561,0.17535 3.512722,0 0.418793,-0.0698 0.833956,-0.32379 1.254546,-0.37636 0.24897,-0.0311 0.501816,0 0.752726,0 0.08364,0 0.181319,0.0464 0.25091,0 0.0778,-0.0519 0.04765,-0.19904 0.125452,-0.25091 0.126346,-0.0842 0.967573,-0.0357 1.254546,-0.25092 0.68731,-0.51547 1.436235,-0.98308 2.132724,-1.50544 0.263564,-0.19768 0.469614,-0.45741 0.752726,-0.62728 0.320731,-0.19243 0.699273,-0.28441 1.003636,-0.50182 0.144373,-0.10312 0.225912,-0.28233 0.376365,-0.37636 0.190965,-0.11936 0.413631,-0.1797 0.627271,-0.25091 0.03967,-0.0132 0.09589,0.0296 0.125455,0 0.02957,-0.0296 -0.0374,-0.10675 0,-0.12545 0.07481,-0.0374 0.176101,0.0374 0.250907,0 0.105794,-0.0529 0.145119,-0.19802 0.25091,-0.25091 0.0748,-0.0374 0.173254,0.0311 0.250909,0 0.194136,-0.0777 0.303456,-0.31025 0.501817,-0.37637 0.119017,-0.0397 0.264155,0.0561 0.376364,0 0.105791,-0.0529 0.13616,-0.22222 0.250907,-0.2509 0.24342,-0.0609 0.519764,0.0932 0.752729,0 0.109818,-0.0439 0.14109,-0.20699 0.250907,-0.25092 0.232963,-0.0932 0.50931,0.0609 0.752727,0 0.05738,-0.0143 0.06935,-0.10675 0.125455,-0.12545 0.477631,-0.15921 3.289739,0 4.014541,0 1.051975,0 2.214271,-0.13094 3.261815,0 0.469217,0.0587 1.076431,0.16185 1.505453,0.37636 0.134861,0.0674 0.236371,0.19491 0.376364,0.25091 0.252177,0.10087 0.751457,0.15004 1.003636,0.25091 0.139994,0.056 0.231386,0.20949 0.376362,0.25091 0.160838,0.046 0.340982,-0.046 0.501819,0 0.144976,0.0414 0.241504,0.18348 0.376362,0.25091 0.475859,0.23793 1.133274,0.33594 1.630908,0.50181 0.519999,0.17334 0.995315,0.43597 1.505453,0.62727 0.340484,0.12769 0.672494,0.16813 1.003636,0.25091 0.181432,0.0454 0.320386,0.20555 0.501819,0.25091 0.08114,0.0203 0.173254,-0.0311 0.250907,0 0.506481,0.2026 0.959059,0.61613 1.505453,0.75273 0.162279,0.0406 0.340981,-0.046 0.501819,0 0.144976,0.0414 0.231944,0.20758 0.376362,0.25091 0.494935,0.14848 1.594299,0.26869 2.132727,0.37636 0.183385,0.0367 0.318431,0.21424 0.501816,0.25091 0.461203,0.0922 1.033039,0 1.505453,0 1.170908,0 2.341816,0 3.512725,0 1.008827,0 2.138817,0.14252 3.13636,0 0.491382,-0.0702 1.281542,-0.21809 1.756359,-0.37636 0.29163,-0.0972 0.581261,-0.30213 0.878181,-0.37636 1.431335,-0.35784 2.928515,-0.83698 4.265465,-1.50545 0.15422,-0.0771 0.34173,-0.0614 0.50182,-0.12547 0.53936,-0.21573 1.09143,-0.41147 1.63091,-0.62726 0.25047,-0.10019 0.37109,-0.29097 0.62727,-0.37636 0.14582,-0.0486 0.36896,-0.059 0.50182,-0.12546 0.57415,-0.28708 -0.53236,0.052 0.37636,-0.25091 0.2056,-0.0685 0.57531,-0.0367 0.75272,-0.12545 0.0529,-0.0265 0.0836,-0.0836 0.12546,-0.12546 0.16727,-0.0836 0.32818,-0.18145 0.50182,-0.2509 0.11648,-0.0466 0.25334,0.0246 0.37636,0 0.25935,-0.0519 0.50716,-0.15269 0.75273,-0.25092 0.13999,-0.056 0.23332,-0.20322 0.37636,-0.2509 0.15869,-0.0529 0.33682,0.0275 0.50182,0 2.02355,-0.33726 4.0771,-0.51438 6.14727,-0.37637 0.89312,0.0595 1.75462,0.24099 2.63454,0.37637 0.45653,0.0702 0.9291,0.0252 1.38,0.12545 0.25818,0.0574 0.49251,0.2036 0.75272,0.25091 0.20572,0.0374 0.41819,0 0.62728,0 0.29272,0.0418 0.59005,0.059 0.87818,0.12546 1.03123,0.23797 0.72513,0.26383 1.75636,0.50181 0.36898,0.0851 0.76172,0.0336 1.12909,0.12546 0.18143,0.0454 0.322,0.19953 0.50182,0.25091 0.12062,0.0345 0.25734,-0.0397 0.37636,0 0.24827,0.0828 0.41886,0.27215 0.62727,0.37636 0.32098,0.16049 0.69066,0.14659 1.00364,0.25091 0.35484,0.11828 0.66184,0.34991 1.00363,0.50182 0.46174,0.20522 0.90839,0.44588 1.38,0.62726 0.28415,0.1093 0.59998,0.12727 0.87818,0.25092 0.24183,0.24182 0.20457,0.25745 0.50182,0.37637 0.90929,0.3637 1.70259,1.06933 2.63454,1.37999 0.0794,0.0265 0.17157,-0.0265 0.25091,0 0.23133,0.0771 0.40315,0.28031 0.62728,0.37636 0.51513,0.22078 0.3491,0.0546 1.00363,0.2509 0.2157,0.0647 0.4088,0.1963 0.62727,0.25092 0.12171,0.0304 0.25262,-0.0206 0.37636,0 0.51668,0.0861 1.01023,0.25256 1.50546,0.37636 0.16228,0.0406 0.33779,-0.0328 0.50182,0 0.5016,0.10032 1.0005,0.17878 1.50545,0.25092 0.34138,0.0488 0.66549,0.18328 1.00364,0.25091 0.42897,0.0858 2.19468,0.088 2.63454,0 1.05628,-0.21127 0.004,-0.002 0.50182,-0.25091 0.61158,-0.30579 0.15465,0.0707 0.87818,-0.25092 0.62635,-0.27837 1.1272,-0.87743 1.75636,-1.12908 0.0777,-0.0311 0.16977,0.0203 0.25091,0 0.27215,-0.068 0.48909,-0.28051 0.75273,-0.37637 0.61394,-0.22326 1.28339,-0.37081 1.88181,-0.62728 0.13859,-0.0594 0.23778,-0.19151 0.37636,-0.2509 0.15848,-0.0679 0.35212,-0.0399 0.50182,-0.12545 0.15404,-0.088 0.23199,-0.27325 0.37637,-0.37637 0.22827,-0.16305 0.5283,-0.20805 0.75272,-0.37637 0.70862,-0.53146 1.27157,-1.14043 2.00727,-1.6309"
       id="path2435-4-1-0" />
    <ellipse
       style="fill:none;fill-opacity:1;stroke:#000000;stroke-width:0.264583;stroke-opacity:1"
       id="path1515-7-8-8"
       cx="93.588997"
       cy="181.78346"
       rx="6.0845394"
       ry="5.018177" />
    <path
       style="fill:none;fill-opacity:1;stroke:#000000;stroke-width:0.264999;stroke-dasharray:none;stroke-dashoffset:0;stroke-opacity:1"
       d="m 83.678103,207.50162 1.254546,-31.1127 9.158171,-1.88181 -0.627272,-28.10179 -3.763632,-16.8109 4.516358,-14.05089 -6.649085,-0.25091 2.383634,15.55635"
       id="path3414" />
    <path
       style="fill:none;fill-opacity:1;stroke:#000000;stroke-width:0.265;stroke-dasharray:0.265, 0.795;stroke-dashoffset:0;stroke-opacity:1"
       d="m 13.056275,242.99601 c 0.573959,-0.075 0.954568,-0.44365 1.505453,-0.62726 0.28377,-0.0946 0.583605,-0.10363 0.878181,-0.25092 0.288561,-0.14428 0.44639,-0.29978 0.752727,-0.37637 0.162278,-0.0406 0.339539,0.0406 0.501817,0 0.365334,-0.0913 0.676257,-0.33813 1.003636,-0.50181 0.390502,-0.19524 0.827641,-0.28488 1.254544,-0.37637 0.57333,-0.12284 1.180832,-0.26125 1.756362,-0.37635 0.246037,-0.0492 0.50434,0.0355 0.752727,0 0.261823,-0.0374 0.496142,-0.18677 0.752727,-0.25092 0.480468,-0.12011 0.945015,0.092 1.379998,-0.12545 0.310939,-0.15547 2.752484,0 3.136361,0 1.059617,0 2.084497,0.009 3.136361,0.12545 0.401454,0.0446 0.557575,-0.0743 1.003635,0 0.300299,0.05 0.58099,0.18487 0.878181,0.25092 0.399136,0.0887 0.853188,-0.0803 1.254544,0 0.539419,0.10787 1.066831,0.42122 1.630908,0.5018 0.165591,0.0237 0.336226,-0.0236 0.501818,0 0.589305,0.0842 1.182095,0.35827 1.756363,0.50182 0.771226,0.19282 1.653524,0.26223 2.383634,0.62728 0.700156,0.35007 1.392676,0.75695 2.132724,1.00363 0.198361,0.0661 0.421026,-0.0344 0.627271,0 0.255257,-0.0436 0.406448,0.20674 0.627274,0.25091 0.123018,0.0246 0.257345,-0.0397 0.376362,0 0.143039,0.0477 0.236371,0.19491 0.376365,0.25092 0.194135,0.0777 0.424423,-0.0507 0.627271,0 0.05738,0.0143 0.07256,0.099 0.125455,0.12545 0.134811,0.0674 0.356669,-0.0484 0.501817,0 0.908719,0.30291 -0.197792,-0.0362 0.376364,0.25091 0.158216,0.0791 0.597178,-0.0222 0.752727,0 0.323725,-0.12973 0.493381,0.19904 0.752726,0.25091 0.645414,0.12908 1.35455,-0.0932 2.007269,0 1.005441,0.14363 1.991707,0.12545 3.010908,0.12545 1.977512,0 3.921903,-0.0465 5.896359,-0.12545 1.040834,-0.0416 2.460561,0.17535 3.512722,0 0.418793,-0.0698 0.833956,-0.32379 1.254546,-0.37636 0.24897,-0.0311 0.501816,0 0.752726,0 0.08364,0 0.181319,0.0464 0.25091,0 0.0778,-0.0519 0.04765,-0.19904 0.125452,-0.25091 0.126346,-0.0842 0.967573,-0.0357 1.254546,-0.25092 0.68731,-0.51547 1.436235,-0.98308 2.132724,-1.50544 0.263564,-0.19768 0.469614,-0.45741 0.752726,-0.62728 0.320731,-0.19243 0.699273,-0.28441 1.003636,-0.50182 0.144373,-0.10312 0.225912,-0.28233 0.376365,-0.37636 0.190965,-0.11936 0.413631,-0.1797 0.627271,-0.25091 0.03967,-0.0132 0.09589,0.0296 0.125455,0 0.02957,-0.0296 -0.0374,-0.10675 0,-0.12545 0.07481,-0.0374 0.176101,0.0374 0.250907,0 0.105794,-0.0529 0.145119,-0.19802 0.25091,-0.25091 0.0748,-0.0374 0.173254,0.0311 0.250909,0 0.194136,-0.0777 0.303456,-0.31025 0.501817,-0.37637 0.119017,-0.0397 0.264155,0.0561 0.376364,0 0.105791,-0.0529 0.13616,-0.22222 0.250907,-0.2509 0.24342,-0.0609 0.519764,0.0932 0.752729,0 0.109818,-0.0439 0.14109,-0.20699 0.250907,-0.25092 0.232963,-0.0932 0.50931,0.0609 0.752727,0 0.05738,-0.0143 0.06935,-0.10675 0.125455,-0.12545 0.477631,-0.15921 3.289739,0 4.014541,0 1.051975,0 2.214271,-0.13094 3.261815,0 0.469217,0.0587 1.076431,0.16185 1.505453,0.37636 0.134861,0.0674 0.236371,0.19491 0.376364,0.25091 0.252177,0.10087 0.751457,0.15004 1.003636,0.25091 0.139994,0.056 0.231386,0.20949 0.376362,0.25091 0.160838,0.046 0.340982,-0.046 0.501819,0 0.144976,0.0414 0.241504,0.18348 0.376362,0.25091 0.475859,0.23793 1.133274,0.33594 1.630908,0.50181 0.519999,0.17334 0.995315,0.43597 1.505453,0.62727 0.340484,0.12769 0.672494,0.16813 1.003636,0.25091 0.181432,0.0454 0.320386,0.20555 0.501819,0.25091 0.08114,0.0203 0.173254,-0.0311 0.250907,0 0.506481,0.2026 0.959059,0.61613 1.505453,0.75273 0.162279,0.0406 0.340981,-0.046 0.501819,0 0.144976,0.0414 0.231944,0.20758 0.376362,0.25091 0.494935,0.14848 1.594299,0.26869 2.132727,0.37636 0.183385,0.0367 0.318431,0.21424 0.501816,0.25091 0.461203,0.0922 1.033039,0 1.505453,0 1.170908,0 2.341816,0 3.512725,0 1.008825,0 2.138815,0.14252 3.136355,0 0.49139,-0.0702 1.28155,-0.21809 1.75636,-0.37636 0.29163,-0.0972 0.58126,-0.30213 0.87818,-0.37636 1.43134,-0.35784 2.92852,-0.83698 4.26547,-1.50545 0.15422,-0.0771 0.34173,-0.0614 0.50182,-0.12547 0.53936,-0.21573 1.09143,-0.41147 1.63091,-0.62726 0.25047,-0.10019 0.37109,-0.29097 0.62727,-0.37636 0.14582,-0.0486 0.36896,-0.059 0.50182,-0.12546 0.57415,-0.28708 -0.53236,0.052 0.37636,-0.25091 0.2056,-0.0685 0.57531,-0.0367 0.75272,-0.12545 0.0529,-0.0265 0.0836,-0.0836 0.12546,-0.12546 0.16727,-0.0836 0.32818,-0.18145 0.50182,-0.2509 0.11648,-0.0466 0.25334,0.0246 0.37636,0 0.25935,-0.0519 0.50716,-0.15269 0.75273,-0.25092 0.13999,-0.056 0.23332,-0.20322 0.37636,-0.2509 0.15869,-0.0529 0.33682,0.0275 0.50182,0 2.02355,-0.33726 4.0771,-0.51438 6.14727,-0.37637 0.89312,0.0595 1.75462,0.24099 2.63454,0.37637 0.45653,0.0702 0.9291,0.0252 1.38,0.12545 0.25818,0.0574 0.49251,0.2036 0.75272,0.25091 0.20572,0.0374 0.41819,0 0.62728,0 0.29272,0.0418 0.59005,0.059 0.87818,0.12546 1.03123,0.23797 0.72513,0.26383 1.75636,0.50181 0.36898,0.0851 0.76172,0.0336 1.12909,0.12546 0.18143,0.0454 0.322,0.19953 0.50182,0.25091 0.12062,0.0345 0.25734,-0.0397 0.37636,0 0.24827,0.0828 0.41886,0.27215 0.62727,0.37636 0.32098,0.16049 0.69066,0.14659 1.00364,0.25091 0.35484,0.11828 0.66184,0.34991 1.00363,0.50182 0.46174,0.20522 0.90839,0.44588 1.38,0.62726 0.28415,0.1093 0.59998,0.12727 0.87818,0.25092 0.24183,0.24182 0.20457,0.25745 0.50182,0.37637 0.90929,0.3637 1.70259,1.06933 2.63454,1.37999 0.0794,0.0265 0.17157,-0.0265 0.25091,0 0.23133,0.0771 0.40315,0.28031 0.62728,0.37636 0.51513,0.22078 0.3491,0.0546 1.00363,0.2509 0.2157,0.0647 0.4088,0.1963 0.62727,0.25092 0.12171,0.0304 0.25262,-0.0206 0.37636,0 0.51668,0.0861 1.01023,0.25256 1.50546,0.37636 0.16228,0.0406 0.33779,-0.0328 0.50182,0 0.5016,0.10032 1.0005,0.17878 1.50545,0.25092 0.34138,0.0488 0.66549,0.18328 1.00364,0.25091 0.42897,0.0858 2.19468,0.088 2.63454,0 1.05628,-0.21127 0.004,-0.002 0.50182,-0.25091 0.61158,-0.30579 0.15465,0.0707 0.87818,-0.25092 0.62635,-0.27837 1.1272,-0.87743 1.75636,-1.12908 0.0777,-0.0311 0.16977,0.0203 0.25091,0 0.27215,-0.068 0.48909,-0.28051 0.75273,-0.37637 0.61394,-0.22326 1.28339,-0.37081 1.88181,-0.62728 0.13859,-0.0594 0.23778,-0.19151 0.37636,-0.2509 0.15848,-0.0679 0.35212,-0.0399 0.50182,-0.12545 0.15404,-0.088 0.23199,-0.27325 0.37637,-0.37637 0.22827,-0.16305 0.5283,-0.20805 0.75272,-0.37637 0.70862,-0.53146 1.27157,-1.14043 2.00727,-1.6309"
       id="path2435-4-1-0-2" />
    <path
       style="fill:none;fill-opacity:1;stroke:#000000;stroke-width:0.264999;stroke-dasharray:none;stroke-dashoffset:0;stroke-opacity:1"
       d="m 81.921741,267.3434 0.752726,14.42725 5.896358,0.2509 v -23.83633 l -2.88545,-14.92908 4.767268,-14.67817 -4.767268,-0.50182 v 14.42726"
       id="path3438" />
    <ellipse
       style="fill:none;fill-opacity:1;stroke:#000000;stroke-width:0.264583;stroke-opacity:1"
       id="path1515-7-8-8-5"
       cx="86.312645"
       cy="287.03973"
       rx="6.0845394"
       ry="5.018177" />
    <text
       xml:space="preserve"
       style="font-style:normal;font-variant:normal;font-weight:normal;font-stretch:normal;font-size:4.93889px;font-family:Arial;-inkscape-font-specification:Arial;fill:none;fill-opacity:1;stroke:#000000;stroke-width:0.264583;stroke-miterlimit:3.7;stroke-dasharray:none;stroke-dashoffset:0;stroke-opacity:1"
       x="16.309076"
       y="9.9109001"
       id="text4264"><tspan
         sodipodi:role="line"
         id="tspan4262"
         style="font-style:italic;font-variant:normal;font-weight:normal;font-stretch:normal;font-size:4.23333px;font-family:Arial;-inkscape-font-specification:'Arial, Italic';font-variant-ligatures:normal;font-variant-caps:normal;font-variant-numeric:normal;font-variant-east-asian:normal;fill:#000000;fill-opacity:1;stroke-width:0.264583;stroke-linejoin:bevel;stroke-miterlimit:3.7;stroke-dasharray:none"
         x="16.309076"
         y="9.9109001">Départ droit, bras tendus</tspan></text>
    <text
       xml:space="preserve"
       style="font-style:normal;font-variant:normal;font-weight:normal;font-stretch:normal;font-size:4.9389px;font-family:Arial;-inkscape-font-specification:Arial;fill:none;fill-opacity:1;stroke:#000000;stroke-width:0.264999;stroke-dasharray:none;stroke-dashoffset:0;stroke-opacity:1"
       x="93.338089"
       y="7.7781744"
       id="text4318"><tspan
         sodipodi:role="line"
         id="tspan4316"
         style="stroke-width:0.265"
         x="93.338089"
         y="7.7781744" /></text>
    <text
       xml:space="preserve"
       style="font-style:italic;font-variant:normal;font-weight:normal;font-stretch:normal;font-size:4.23333px;font-family:Arial;-inkscape-font-specification:'Arial, Italic';font-variant-ligatures:normal;font-variant-caps:normal;font-variant-numeric:normal;font-variant-east-asian:normal;fill:#000000;fill-opacity:1;stroke:#000000;stroke-width:0.264583;stroke-linejoin:bevel;stroke-miterlimit:3.7;stroke-dasharray:none;stroke-dashoffset:0;stroke-opacity:1"
       x="12.921805"
       y="43.658142"
       id="text4322"><tspan
         sodipodi:role="line"
         id="tspan4320"
         style="stroke-width:0.264583"
         x="12.921805"
         y="43.658142">On casse au niveau du bassin...</tspan></text>
    <text
       xml:space="preserve"
       style="font-style:italic;font-variant:normal;font-weight:normal;font-stretch:normal;font-size:4.23333px;font-family:Arial;-inkscape-font-specification:'Arial, Italic';font-variant-ligatures:normal;font-variant-caps:normal;font-variant-numeric:normal;font-variant-east-asian:normal;fill:#000000;fill-opacity:1;stroke:#000000;stroke-width:0.264583;stroke-linejoin:bevel;stroke-miterlimit:3.7;stroke-dasharray:none;stroke-dashoffset:0;stroke-opacity:1"
       x="14.17635"
       y="89.825371"
       id="text4326"><tspan
         sodipodi:role="line"
         id="tspan4324"
         style="stroke-width:0.264583"
         x="14.17635"
         y="89.825371">et on ramène ses mains sur ses genoux</tspan></text>
    <text
       xml:space="preserve"
       style="font-style:italic;font-variant:normal;font-weight:normal;font-stretch:normal;font-size:4.23333px;font-family:Arial;-inkscape-font-specification:'Arial, Italic';font-variant-ligatures:normal;font-variant-caps:normal;font-variant-numeric:normal;font-variant-east-asian:normal;fill:#000000;fill-opacity:1;stroke:#000000;stroke-width:0.264583;stroke-linejoin:bevel;stroke-miterlimit:3.7;stroke-dasharray:none;stroke-dashoffset:0;stroke-opacity:1"
       x="13.172715"
       y="139.75623"
       id="text4330"><tspan
         sodipodi:role="line"
         id="tspan4328"
         style="stroke-width:0.264583"
         x="13.172715"
         y="139.75623">On se remet droit, bien vertical</tspan></text>
    <text
       xml:space="preserve"
       style="font-style:italic;font-variant:normal;font-weight:normal;font-stretch:normal;font-size:4.23333px;font-family:Arial;-inkscape-font-specification:'Arial, Italic';font-variant-ligatures:normal;font-variant-caps:normal;font-variant-numeric:normal;font-variant-east-asian:normal;fill:#000000;fill-opacity:1;stroke:#000000;stroke-width:0.264583;stroke-linejoin:bevel;stroke-miterlimit:3.7;stroke-dasharray:none;stroke-dashoffset:0;stroke-opacity:1"
       x="11.792716"
       y="225.31615"
       id="text4334"><tspan
         sodipodi:role="line"
         id="tspan4332"
         style="stroke-width:0.264583"
         x="11.792716"
         y="225.31615">On utilise les mains pour chasser l'eau</tspan></text>
    <text
       xml:space="preserve"
       style="font-style:italic;font-variant:normal;font-weight:normal;font-stretch:normal;font-size:4.23333px;font-family:Arial;-inkscape-font-specification:'Arial, Italic';font-variant-ligatures:normal;font-variant-caps:normal;font-variant-numeric:normal;font-variant-east-asian:normal;fill:#000000;fill-opacity:1;stroke:#000000;stroke-width:0.264583;stroke-linejoin:bevel;stroke-miterlimit:3.7;stroke-dasharray:none;stroke-dashoffset:0;stroke-opacity:1"
       x="17.312712"
       y="272.86337"
       id="text4338"><tspan
         sodipodi:role="line"
         id="tspan4336"
         style="stroke-width:0.264583"
         x="17.312712"
         y="272.86337">* les palmes ne sont pas utilisées </tspan></text>
    <text
       xml:space="preserve"
       style="font-style:italic;font-variant:normal;font-weight:normal;font-stretch:normal;font-size:4.23333px;font-family:Arial;-inkscape-font-specification:'Arial, Italic';font-variant-ligatures:normal;font-variant-caps:normal;font-variant-numeric:normal;font-variant-east-asian:normal;fill:#000000;fill-opacity:1;stroke:#000000;stroke-width:0.264583;stroke-linejoin:bevel;stroke-miterlimit:3.7;stroke-dasharray:none;stroke-dashoffset:0;stroke-opacity:1"
       x="124.9526"
       y="8.530901"
       id="text4378"><tspan
         sodipodi:role="line"
         id="tspan4376"
         style="stroke-width:0.264583"
         x="124.9526"
         y="8.530901">LE CANARD</tspan></text>
  </g>
</svg>
