<?xml version="1.0" encoding="UTF-8" standalone="no"?>
<!-- Created with Inkscape (http://www.inkscape.org/) -->

<svg
   width="210mm"
   height="297mm"
   viewBox="0 0 210 297"
   version="1.1"
   id="svg5"
   inkscape:version="1.2 (dc2aedaf03, 2022-05-15)"
   sodipodi:docname="canard mehdi.svg"
   xmlns:inkscape="http://www.inkscape.org/namespaces/inkscape"
   xmlns:sodipodi="http://sodipodi.sourceforge.net/DTD/sodipodi-0.dtd"
   xmlns="http://www.w3.org/2000/svg"
   xmlns:svg="http://www.w3.org/2000/svg">
  <sodipodi:namedview
     id="namedview7"
     pagecolor="#ffffff"
     bordercolor="#000000"
     borderopacity="0.25"
     inkscape:showpageshadow="2"
     inkscape:pageopacity="0.0"
     inkscape:pagecheckerboard="0"
     inkscape:deskcolor="#d1d1d1"
     inkscape:document-units="mm"
     showgrid="false"
     inkscape:zoom="2.1089995"
     inkscape:cx="298.24568"
     inkscape:cy="949.73942"
     inkscape:window-width="1920"
     inkscape:window-height="1017"
     inkscape:window-x="1912"
     inkscape:window-y="-8"
     inkscape:window-maximized="1"
     inkscape:current-layer="layer1" />
  <defs
     id="defs2">
    <linearGradient
       id="linearGradient1519"
       inkscape:swatch="solid">
      <stop
         style="stop-color:#000000;stop-opacity:1;"
         offset="0"
         id="stop1517" />
    </linearGradient>
  </defs>
  <g
     inkscape:label="Calque 1"
     inkscape:groupmode="layer"
     id="layer1">
    <ellipse
       style="fill:none;fill-opacity:1;stroke:#000000;stroke-width:0.224981;stroke-opacity:1"
       id="path1515"
       cx="96.362709"
       cy="25.646765"
       rx="4.8160553"
       ry="4.5840468" />
    <path
       style="fill:none;fill-opacity:1;stroke:#000000;stroke-width:0.224981;stroke-opacity:1"
       d="M 90.553649,26.105168 73.275434,25.646763 61.260121,28.397192 50.237806,25.646763 35.938592,27.709585 37.825294,32.179031 50.436408,25.646763"
       id="path1633" />
    <path
       style="fill:none;fill-opacity:1;stroke:#000000;stroke-width:0.224981;stroke-opacity:1"
       d="M 76.155137,25.646763 111.20808,32.06443"
       id="path1635" />
    <path
       style="fill:none;fill-opacity:1;stroke:#000000;stroke-width:0.225335;stroke-dasharray:0.225335, 0.676006;stroke-dashoffset:0;stroke-opacity:1"
       d="m 22.830977,30.345411 c 0.454301,-0.06853 0.755563,-0.405262 1.191601,-0.573005 0.22461,-0.08641 0.461937,-0.09466 0.695101,-0.229204 0.228402,-0.131798 0.353328,-0.273843 0.5958,-0.343802 0.128448,-0.03706 0.268754,0.03706 0.397201,0 0.28917,-0.08343 0.535273,-0.308877 0.794401,-0.458406 0.309091,-0.178357 0.655097,-0.260239 0.993001,-0.343802 0.453804,-0.112228 0.934656,-0.238655 1.390201,-0.343804 0.194744,-0.04495 0.399197,0.03241 0.595801,0 0.207239,-0.03417 0.392708,-0.170605 0.595801,-0.229204 0.380302,-0.109724 0.748002,0.08408 1.092301,-0.114599 0.246115,-0.142021 2.178655,0 2.482503,0 0.838712,0 1.649928,0.0079 2.482503,0.114599 0.31776,0.04075 0.441334,-0.06791 0.794401,0 0.237693,0.04572 0.459867,0.168874 0.6951,0.229204 0.315926,0.08103 0.675319,-0.07333 0.993001,0 0.426963,0.09855 0.844422,0.384793 1.290902,0.458403 0.131069,0.0216 0.266131,-0.0216 0.397201,0 0.466448,0.07691 0.935655,0.327258 1.390202,0.458407 0.610443,0.176127 1.308803,0.239533 1.886702,0.573004 0.55419,0.319793 1.102336,0.69147 1.688101,0.91681 0.157007,0.0604 0.333252,-0.0314 0.4965,0 0.202041,-0.0398 0.321713,0.188858 0.496502,0.229204 0.09737,0.02248 0.203694,-0.03624 0.297899,0 0.113219,0.04356 0.187093,0.178048 0.297902,0.2292 0.153662,0.07094 0.33594,-0.04632 0.496499,0 0.04542,0.0131 0.05743,0.09045 0.0993,0.114602 0.106706,0.06157 0.282312,-0.04419 0.3972,0 0.719272,0.2767 -0.156557,-0.03304 0.297901,0.229203 0.125231,0.07227 0.47268,-0.0203 0.595801,0 0.256236,-0.11851 0.390522,0.181819 0.5958,0.2292 0.51086,0.117918 1.072158,-0.08517 1.5888,0 0.79583,0.131209 1.576483,0.114602 2.383204,0.114602 1.565247,0 3.104278,-0.04245 4.667106,-0.114602 0.823845,-0.03803 1.947592,0.160191 2.780402,0 0.331484,-0.06376 0.660095,-0.295777 0.993002,-0.343801 0.197066,-0.02843 0.397199,0 0.595801,0 0.0662,0 0.143518,0.04238 0.198601,0 0.06158,-0.04738 0.03772,-0.181822 0.0993,-0.229204 0.100006,-0.07694 0.765856,-0.03259 0.993002,-0.2292 0.544022,-0.47089 1.136814,-0.898038 1.688101,-1.375216 0.208617,-0.18057 0.371711,-0.417833 0.5958,-0.573006 0.253867,-0.175789 0.553491,-0.259809 0.794402,-0.458404 0.114274,-0.0942 0.178814,-0.257906 0.297901,-0.343804 0.151154,-0.109028 0.327399,-0.164149 0.4965,-0.229201 0.0314,-0.01208 0.0759,0.02701 0.0993,0 0.0234,-0.02701 -0.0296,-0.09752 0,-0.114601 0.05921,-0.03416 0.139388,0.03416 0.198598,0 0.08374,-0.04832 0.114866,-0.180884 0.198602,-0.229204 0.05921,-0.03416 0.137134,0.02837 0.1986,0 0.153663,-0.07094 0.240192,-0.283402 0.3972,-0.343804 0.09421,-0.03624 0.209085,0.05125 0.297901,0 0.08374,-0.04832 0.107774,-0.202996 0.198598,-0.2292 0.192673,-0.05559 0.411406,0.08512 0.595803,0 0.08692,-0.04013 0.111676,-0.189076 0.198599,-0.229204 0.184395,-0.08513 0.403131,0.0556 0.595801,0 0.04542,-0.0131 0.05489,-0.09752 0.0993,-0.114601 0.378057,-0.145436 2.603906,0 3.177603,0 0.832663,0 1.752648,-0.119615 2.581803,0 0.371396,0.05358 0.852021,0.147849 1.191601,0.343805 0.106746,0.0616 0.187094,0.178048 0.297901,0.2292 0.199604,0.09215 0.594796,0.13706 0.794402,0.229204 0.110808,0.05116 0.183147,0.191363 0.297899,0.229202 0.127307,0.04198 0.269895,-0.04198 0.397202,0 0.114751,0.03784 0.191156,0.167605 0.297899,0.229203 0.376653,0.217346 0.897013,0.306877 1.290902,0.458404 0.411591,0.158338 0.787815,0.398253 1.191601,0.573005 0.269501,0.116637 0.532295,0.15358 0.794401,0.229204 0.143608,0.04144 0.253593,0.187766 0.397202,0.229202 0.06422,0.01853 0.137134,-0.02837 0.198598,0 0.400892,0.185066 0.759118,0.562826 1.191602,0.687608 0.128447,0.03706 0.269894,-0.04198 0.397201,0 0.114752,0.03784 0.183589,0.189622 0.297899,0.2292 0.391753,0.135636 1.261925,0.245435 1.688104,0.343804 0.145153,0.03351 0.252045,0.195698 0.397199,0.229204 0.365053,0.08426 0.817674,0 1.191601,0 0.926799,0 1.853599,0 2.780409,0 0.79851,0 1.69292,0.130176 2.4825,0 0.38894,-0.06413 1.01437,-0.199224 1.3902,-0.343805 0.23083,-0.0888 0.46008,-0.275995 0.6951,-0.343804 1.13293,-0.326875 2.31798,-0.76457 3.3762,-1.375214 0.12207,-0.07044 0.27049,-0.05611 0.3972,-0.114602 0.426921,-0.197077 0.863901,-0.375884 1.290911,-0.573005 0.19825,-0.09152 0.29373,-0.2658 0.4965,-0.343802 0.11542,-0.0444 0.29204,-0.05392 0.3972,-0.114602 0.45445,-0.262242 -0.42138,0.0475 0.2979,-0.229202 0.16273,-0.0626 0.45537,-0.03357 0.59579,-0.114602 0.0419,-0.02417 0.0662,-0.0764 0.0993,-0.114602 0.1324,-0.0764 0.25976,-0.165753 0.3972,-0.2292 0.0922,-0.04256 0.20052,0.02248 0.2979,0 0.20528,-0.04738 0.40143,-0.139476 0.5958,-0.229204 0.11081,-0.05115 0.18468,-0.185646 0.2979,-0.229201 0.12561,-0.04832 0.2666,0.02512 0.3972,0 1.60169,-0.308082 3.22712,-0.469876 4.86571,-0.343805 0.70692,0.05439 1.38882,0.220143 2.0853,0.343805 0.36135,0.06415 0.7354,0.02306 1.0923,0.1146 0.20436,0.05241 0.38983,0.185984 0.5958,0.229203 0.16283,0.03416 0.331,0 0.4965,0 0.2317,0.0382 0.46704,0.05386 0.6951,0.114602 0.81625,0.217389 0.57396,0.241014 1.3902,0.458404 0.29206,0.07778 0.60292,0.0307 0.8937,0.1146 0.14361,0.04144 0.25487,0.18227 0.39721,0.229204 0.0955,0.03149 0.20369,-0.03624 0.29789,0 0.19652,0.0756 0.33154,0.248608 0.4965,0.343802 0.25407,0.146604 0.54668,0.133903 0.79441,0.229203 0.28086,0.108047 0.52386,0.319637 0.79439,0.458404 0.36548,0.187465 0.71902,0.407309 1.09231,0.573007 0.22491,0.09983 0.47489,0.116253 0.6951,0.229201 0.19141,0.220911 0.16192,0.23519 0.3972,0.343805 0.71972,0.332251 1.34764,0.976837 2.0853,1.260612 0.0628,0.02417 0.1358,-0.02417 0.1986,0 0.1831,0.07044 0.3191,0.25606 0.49651,0.343804 0.40773,0.201675 0.27632,0.04983 0.79439,0.229201 0.17073,0.05911 0.32358,0.17931 0.4965,0.229203 0.0963,0.0278 0.19996,-0.01885 0.2979,0 0.40896,0.07866 0.79962,0.230709 1.19161,0.343805 0.12845,0.03706 0.26737,-0.02997 0.3972,0 0.39703,0.09164 0.79192,0.163305 1.1916,0.2292 0.27021,0.04455 0.52675,0.167424 0.7944,0.229204 0.33954,0.07837 1.73714,0.08036 2.0853,0 0.83607,-0.19298 0.003,-0.0017 0.3972,-0.229204 0.48408,-0.279335 0.12241,0.06455 0.6951,-0.2292 0.49578,-0.254296 0.89221,-0.80152 1.3902,-1.031411 0.0615,-0.02837 0.13438,0.01853 0.19861,0 0.21541,-0.06215 0.38712,-0.25623 0.5958,-0.343805 0.48595,-0.203939 1.01583,-0.338725 1.4895,-0.573005 0.10969,-0.05425 0.1882,-0.174946 0.29789,-0.229203 0.12544,-0.06204 0.27871,-0.03646 0.39721,-0.114599 0.12192,-0.08041 0.18362,-0.249603 0.2979,-0.343806 0.18068,-0.148946 0.41816,-0.190048 0.5958,-0.343802 0.56089,-0.485485 1.00647,-1.041775 1.5888,-1.489815"
       id="path2435" />
    <ellipse
       style="fill:none;fill-opacity:1;stroke:#000000;stroke-width:0.205461;stroke-opacity:1"
       id="path1515-7"
       cx="97.960373"
       cy="78.061264"
       rx="4.7027884"
       ry="3.9151816" />
    <path
       style="fill:none;fill-opacity:1;stroke:#000000;stroke-width:0.205784;stroke-dasharray:0.205784, 0.617354;stroke-dashoffset:0;stroke-opacity:1"
       d="m 19.952268,60.540828 c 0.443617,-0.05853 0.737794,-0.34613 1.163577,-0.489397 0.219327,-0.0738 0.451073,-0.08085 0.678753,-0.19576 0.223031,-0.112567 0.345018,-0.233887 0.581788,-0.293638 0.125426,-0.03165 0.262433,0.03165 0.387859,0 0.282369,-0.07126 0.522684,-0.263808 0.775718,-0.391519 0.301822,-0.152333 0.63969,-0.222267 0.969647,-0.293637 0.443131,-0.09585 0.912673,-0.203833 1.357505,-0.29364 0.190164,-0.03839 0.389808,0.02768 0.581789,0 0.202365,-0.02918 0.383472,-0.145711 0.581788,-0.19576 0.371358,-0.09371 0.73041,0.07181 1.066611,-0.09788 0.240328,-0.1213 2.127417,0 2.424118,0 0.818987,0 1.611124,0.0067 2.424118,0.09788 0.310287,0.0348 0.430954,-0.058 0.775718,0 0.232103,0.03905 0.449051,0.144234 0.678753,0.19576 0.308495,0.0692 0.659435,-0.06263 0.969647,0 0.416921,0.08417 0.824562,0.328648 1.260541,0.391517 0.127987,0.01845 0.259872,-0.01845 0.387859,0 0.455479,0.06569 0.913651,0.279508 1.357507,0.39152 0.596087,0.150428 1.278022,0.204583 1.842329,0.489397 0.541156,0.273131 1.076411,0.590576 1.648399,0.783037 0.153315,0.05159 0.325415,-0.02682 0.484823,0 0.19729,-0.03399 0.314147,0.161301 0.484825,0.19576 0.09508,0.0192 0.198904,-0.03095 0.290893,0 0.110556,0.0372 0.182693,0.152069 0.290896,0.195757 0.150048,0.06059 0.32804,-0.03956 0.484822,0 0.04435,0.01119 0.05608,0.07725 0.09696,0.09788 0.104197,0.05259 0.275673,-0.03775 0.387859,0 0.702356,0.236327 -0.152875,-0.02822 0.290894,0.19576 0.122287,0.06172 0.461564,-0.01734 0.581789,0 0.25021,-0.101218 0.381338,0.155289 0.581788,0.195757 0.498845,0.100712 1.046942,-0.07275 1.551434,0 0.777113,0.112064 1.539406,0.09788 2.327154,0.09788 1.528435,0 3.03127,-0.03626 4.557342,-0.09788 0.804469,-0.03248 1.901787,0.136817 2.715011,0 0.323688,-0.05446 0.644571,-0.25262 0.969648,-0.293637 0.192431,-0.02428 0.387857,0 0.581788,0 0.06465,0 0.140143,0.03619 0.19393,0 0.06013,-0.04047 0.03683,-0.155291 0.09696,-0.19576 0.09765,-0.06572 0.747845,-0.02784 0.969648,-0.195757 0.531228,-0.402182 1.110078,-0.767004 1.648399,-1.174556 0.203711,-0.154223 0.362969,-0.356867 0.581788,-0.489398 0.247896,-0.150139 0.540474,-0.2219 0.775718,-0.391517 0.111587,-0.08046 0.17461,-0.220275 0.290896,-0.29364 0.147598,-0.09312 0.319698,-0.140198 0.484822,-0.195757 0.03066,-0.01032 0.07411,0.02307 0.09697,0 0.02285,-0.02307 -0.02891,-0.08329 0,-0.09788 0.05782,-0.02918 0.136109,0.02918 0.193928,0 0.08177,-0.04127 0.112163,-0.154491 0.19393,-0.19576 0.05781,-0.02918 0.133909,0.02423 0.193929,0 0.15005,-0.06059 0.234544,-0.242051 0.387859,-0.293639 0.09199,-0.03095 0.204167,0.04377 0.290894,0 0.08177,-0.04127 0.10524,-0.173377 0.193928,-0.195758 0.188142,-0.04748 0.40173,0.0727 0.581791,0 0.08488,-0.03427 0.109049,-0.161487 0.193928,-0.19576 0.180058,-0.07271 0.393649,0.04748 0.581788,0 0.04435,-0.01119 0.0536,-0.08329 0.09696,-0.09788 0.369165,-0.124216 2.542665,0 3.10287,0 0.81308,0 1.711428,-0.102162 2.521083,0 0.362661,0.04576 0.831982,0.126276 1.163576,0.293639 0.104235,0.05261 0.182693,0.152069 0.290895,0.195758 0.194909,0.0787 0.580807,0.117061 0.775718,0.19576 0.108202,0.04369 0.17884,0.163441 0.290893,0.195759 0.124313,0.03585 0.263548,-0.03585 0.38786,0 0.112053,0.03232 0.18666,0.143149 0.290893,0.19576 0.367795,0.185632 0.875916,0.262099 1.260542,0.391517 0.401911,0.135235 0.769286,0.340143 1.163576,0.489397 0.263163,0.09962 0.519776,0.131171 0.775718,0.19576 0.14023,0.03539 0.247629,0.160369 0.38786,0.195759 0.06271,0.01583 0.133909,-0.02423 0.193928,0 0.391463,0.158063 0.741264,0.480703 1.163576,0.587278 0.125427,0.03165 0.263547,-0.03586 0.38786,0 0.112053,0.03232 0.179272,0.161955 0.290893,0.195758 0.38254,0.115844 1.232247,0.209623 1.648402,0.293639 0.14174,0.02862 0.246118,0.167143 0.387857,0.19576 0.356468,0.07196 0.798444,0 1.163577,0 0.905004,0 1.810008,0 2.715012,0 0.779731,0 1.653109,0.111181 2.424118,0 0.379793,-0.05477 0.990513,-0.170155 1.357506,-0.29364 0.225403,-0.07584 0.44926,-0.235724 0.678752,-0.293639 1.106286,-0.27918 2.263463,-0.653011 3.296802,-1.174555 0.119198,-0.06016 0.264126,-0.04792 0.38786,-0.09788 0.416876,-0.168321 0.843575,-0.321038 1.260543,-0.489397 0.193591,-0.07817 0.286819,-0.227017 0.484822,-0.293637 0.112706,-0.03793 0.285172,-0.04605 0.387861,-0.09788 0.443765,-0.223978 -0.411465,0.04057 0.290892,-0.195759 0.158909,-0.05347 0.444661,-0.02867 0.581783,-0.09788 0.04089,-0.02065 0.06462,-0.06526 0.09697,-0.09788 0.129284,-0.06526 0.253653,-0.141568 0.38786,-0.195758 0.09003,-0.03635 0.195809,0.0192 0.290892,0 0.200454,-0.04047 0.391988,-0.119124 0.581791,-0.19576 0.108199,-0.04369 0.180335,-0.158559 0.290891,-0.195758 0.122653,-0.04127 0.260334,0.02145 0.387864,0 1.56402,-0.263129 3.15122,-0.401316 4.75127,-0.29364 0.6903,0.04645 1.35616,0.188022 2.03626,0.29364 0.35285,0.05479 0.71811,0.0197 1.06661,0.09788 0.19955,0.04476 0.38066,0.158846 0.58178,0.195759 0.15901,0.02918 0.32323,0 0.48483,0 0.22625,0.03263 0.45606,0.046 0.67876,0.09788 0.79704,0.18567 0.56045,0.205848 1.3575,0.391518 0.28519,0.06643 0.58874,0.02622 0.87268,0.09788 0.14023,0.03539 0.24888,0.155674 0.38786,0.19576 0.0932,0.02689 0.1989,-0.03095 0.29089,0 0.19189,0.06457 0.32374,0.212334 0.48483,0.293637 0.24808,0.125213 0.53381,0.114365 0.77572,0.19576 0.27426,0.09228 0.51154,0.272999 0.77571,0.391517 0.35688,0.160112 0.7021,0.347879 1.06661,0.489399 0.21962,0.08527 0.46373,0.09929 0.67875,0.195758 0.18691,0.188677 0.15812,0.200873 0.38786,0.29364 0.7028,0.283772 1.31595,0.834305 2.03626,1.076674 0.0614,0.02064 0.13261,-0.02064 0.19393,0 0.1788,0.06016 0.3116,0.218698 0.48483,0.29364 0.39815,0.172247 0.26982,0.04256 0.77571,0.195757 0.16672,0.05049 0.31597,0.153147 0.48482,0.19576 0.0941,0.02374 0.19526,-0.0161 0.2909,0 0.39934,0.06718 0.78081,0.197046 1.16358,0.293639 0.12543,0.03165 0.26108,-0.0256 0.38786,0 0.38769,0.07827 0.77329,0.139478 1.16357,0.195758 0.26386,0.03805 0.51437,0.142995 0.77572,0.19576 0.33156,0.06693 1.69629,0.06863 2.03626,0 0.81641,-0.164822 0.003,-0.0015 0.38786,-0.19576 0.4727,-0.238577 0.11953,0.05513 0.67875,-0.195758 0.48411,-0.21719 0.87123,-0.684568 1.35751,-0.880916 0.0601,-0.02423 0.13121,0.01583 0.19393,0 0.21035,-0.05308 0.37802,-0.218843 0.58179,-0.29364 0.47452,-0.174182 0.99194,-0.2893 1.45446,-0.489396 0.10712,-0.04634 0.18379,-0.14942 0.2909,-0.19576 0.12249,-0.05299 0.27215,-0.03114 0.38786,-0.09788 0.11906,-0.06868 0.1793,-0.213183 0.2909,-0.29364 0.17643,-0.127213 0.40832,-0.162318 0.58178,-0.293638 0.5477,-0.414647 0.98281,-0.889768 1.55143,-1.272433"
       id="path2435-4" />
    <path
       style="fill:none;fill-opacity:1;stroke:#000000;stroke-width:0.163114;stroke-dasharray:none;stroke-dashoffset:0;stroke-opacity:1"
       d="M 93.225035,86.962123 V 74.951608 l 1.83202,-0.195294 0.06106,-12.791685 -15.877487,2.734101 -12.274519,-2.929395 -13.495864,4.394091 v -6.444667 l 13.312661,1.855285"
       id="path2584" />
    <ellipse
       style="fill:none;fill-opacity:1;stroke:#000000;stroke-width:0.188631;stroke-opacity:1"
       id="path1515-7-8"
       cx="101.47583"
       cy="103.47766"
       rx="4.6720161"
       ry="3.3217852" />
    <path
       style="fill:none;fill-opacity:1;stroke:#000000;stroke-width:0.188928;stroke-dasharray:0.188928, 0.566785;stroke-dashoffset:0;stroke-opacity:1"
       d="m 20.702924,104.55724 c 0.440714,-0.0496 0.732965,-0.29367 1.155962,-0.41522 0.217893,-0.0626 0.448122,-0.0686 0.674312,-0.16609 0.221572,-0.0955 0.342761,-0.19844 0.577982,-0.24914 0.124605,-0.0269 0.260715,0.0269 0.38532,0 0.280522,-0.0604 0.519264,-0.22382 0.770642,-0.33218 0.299848,-0.12923 0.635505,-0.18857 0.963303,-0.24913 0.440231,-0.0813 0.906702,-0.17293 1.348623,-0.24913 0.18892,-0.0326 0.387258,0.0235 0.577982,0 0.201041,-0.0248 0.380963,-0.12363 0.577982,-0.16609 0.368927,-0.0795 0.72563,0.0609 1.059632,-0.083 0.238754,-0.10292 2.113496,0 2.408256,0 0.813627,0 1.600582,0.006 2.408256,0.083 0.308257,0.0295 0.428134,-0.0492 0.770642,0 0.230584,0.0331 0.446113,0.12238 0.674311,0.16609 0.306477,0.0587 0.655121,-0.0531 0.963302,0 0.414194,0.0714 0.819167,0.27883 1.252294,0.33217 0.127149,0.0157 0.258171,-0.0156 0.385321,0 0.452498,0.0557 0.907672,0.23715 1.348624,0.33218 0.592186,0.12764 1.269659,0.17358 1.830275,0.41523 0.537615,0.23173 1.069366,0.50107 1.637613,0.66436 0.152311,0.0437 0.323285,-0.0228 0.48165,0 0.195999,-0.0289 0.312091,0.13685 0.481653,0.16609 0.09446,0.0163 0.197602,-0.0263 0.288989,0 0.109833,0.0316 0.181498,0.12902 0.288992,0.16609 0.149067,0.0514 0.325894,-0.0336 0.481651,0 0.04406,0.009 0.05571,0.0655 0.09633,0.083 0.103515,0.0446 0.273869,-0.032 0.385321,0 0.69776,0.20051 -0.151875,-0.024 0.288991,0.16609 0.121486,0.0524 0.458543,-0.0147 0.577982,0 0.248572,-0.0859 0.378843,0.13175 0.577981,0.16609 0.495581,0.0854 1.040092,-0.0617 1.541282,0 0.772029,0.0951 1.529333,0.083 2.311927,0.083 1.518434,0 3.011435,-0.0308 4.527522,-0.083 0.799205,-0.0275 1.889343,0.11608 2.697245,0 0.321571,-0.0462 0.640354,-0.21434 0.963304,-0.24913 0.191172,-0.0206 0.38532,0 0.577981,0 0.06422,0 0.139226,0.0307 0.192661,0 0.05974,-0.0344 0.03659,-0.13176 0.09633,-0.16609 0.09701,-0.0557 0.742951,-0.0236 0.963303,-0.16609 0.527752,-0.34123 1.102814,-0.65075 1.637613,-0.99654 0.202378,-0.13084 0.360594,-0.30278 0.577981,-0.41523 0.246274,-0.12737 0.536938,-0.18826 0.770643,-0.33217 0.110857,-0.0683 0.173466,-0.18689 0.288992,-0.24914 0.146632,-0.079 0.317607,-0.11894 0.48165,-0.16608 0.03046,-0.009 0.07363,0.0196 0.09633,0 0.02271,-0.0196 -0.02872,-0.0707 0,-0.083 0.05744,-0.0248 0.135219,0.0248 0.192659,0 0.08123,-0.035 0.11143,-0.13108 0.192661,-0.16609 0.05743,-0.0248 0.133033,0.0206 0.192661,0 0.149067,-0.0514 0.233009,-0.20537 0.38532,-0.24914 0.09139,-0.0263 0.202832,0.0371 0.288992,0 0.08123,-0.035 0.10455,-0.1471 0.192659,-0.16609 0.18691,-0.0403 0.399101,0.0617 0.577983,0 0.08432,-0.0291 0.108336,-0.13701 0.192659,-0.16609 0.178881,-0.0617 0.391074,0.0403 0.577982,0 0.04406,-0.01 0.05325,-0.0707 0.09633,-0.0831 0.36675,-0.10538 2.526028,0 3.082567,0 0.80776,0 1.700229,-0.0867 2.504587,0 0.360288,0.0388 0.826538,0.10714 1.155962,0.24914 0.103553,0.0446 0.181498,0.12902 0.288992,0.16609 0.193634,0.0668 0.577006,0.0993 0.770642,0.16609 0.107494,0.0371 0.17767,0.13867 0.28899,0.16609 0.123499,0.0304 0.261823,-0.0304 0.385322,0 0.11132,0.0274 0.185439,0.12145 0.288989,0.16609 0.365389,0.15749 0.870185,0.22238 1.252294,0.33217 0.399281,0.11475 0.764253,0.28859 1.155963,0.41522 0.261442,0.0845 0.516372,0.1113 0.770642,0.16609 0.13931,0.0301 0.24601,0.13607 0.38532,0.16609 0.0623,0.0134 0.13304,-0.0206 0.19266,0 0.3889,0.13412 0.73641,0.40785 1.15596,0.49827 0.12461,0.0269 0.26183,-0.0305 0.38533,0 0.11132,0.0274 0.17809,0.13741 0.28899,0.16609 0.38003,0.0983 1.22418,0.17786 1.63761,0.24914 0.14081,0.0243 0.24451,0.14181 0.38532,0.16609 0.35414,0.061 0.79322,0 1.15596,0 0.89909,0 1.79817,0 2.69725,0 0.77463,0 1.64229,0.0943 2.40826,0 0.3773,-0.0465 0.98403,-0.14437 1.34862,-0.24914 0.22393,-0.0643 0.44632,-0.2 0.67431,-0.24913 1.09905,-0.23687 2.24866,-0.55404 3.27523,-0.99654 0.11842,-0.051 0.2624,-0.0406 0.38533,-0.0831 0.41414,-0.14281 0.83805,-0.27238 1.25229,-0.41522 0.19233,-0.0663 0.28494,-0.19261 0.48165,-0.24913 0.11197,-0.0322 0.28331,-0.0391 0.38532,-0.083 0.44087,-0.19003 -0.40877,0.0344 0.28899,-0.16609 0.15787,-0.0454 0.44175,-0.0243 0.57798,-0.083 0.0406,-0.0175 0.0642,-0.0554 0.0963,-0.083 0.12844,-0.0554 0.252,-0.12011 0.38533,-0.16609 0.0894,-0.0308 0.19452,0.0163 0.28898,0 0.19915,-0.0343 0.38943,-0.10107 0.57799,-0.16609 0.10749,-0.0371 0.17915,-0.13452 0.28899,-0.16609 0.121852,-0.035 0.258622,0.0182 0.385322,0 1.55378,-0.22324 3.1306,-0.34049 4.72018,-0.24913 0.68579,0.0394 1.34729,0.15952 2.02294,0.24913 0.35054,0.0465 0.71341,0.0167 1.05963,0.083 0.19824,0.038 0.37817,0.13478 0.57798,0.16609 0.15796,0.0248 0.3211,0 0.48165,0 0.22477,0.0277 0.45307,0.039 0.67431,0.083 0.79183,0.15753 0.5568,0.17465 1.34863,0.33218 0.28332,0.0564 0.58488,0.0222 0.86697,0.083 0.13931,0.03 0.24725,0.13208 0.38532,0.16609 0.0926,0.0228 0.1976,-0.0263 0.28899,0 0.19063,0.0548 0.32162,0.18015 0.48165,0.24913 0.24646,0.10624 0.53032,0.097 0.77064,0.16609 0.27247,0.0783 0.5082,0.23163 0.77064,0.33218 0.35455,0.13585 0.69751,0.29515 1.05964,0.41522 0.21818,0.0723 0.46069,0.0843 0.67431,0.16609 0.18569,0.16008 0.15708,0.17043 0.38532,0.24914 0.6982,0.24076 1.30733,0.70785 2.02293,0.91349 0.061,0.0175 0.13174,-0.0175 0.19266,0 0.17763,0.051 0.30956,0.18555 0.48166,0.24914 0.39554,0.14613 0.26806,0.0361 0.77064,0.16608 0.16562,0.0428 0.3139,0.12994 0.48165,0.16609 0.0934,0.0201 0.19397,-0.0136 0.28899,0 0.39673,0.057 0.7757,0.16718 1.15596,0.24914 0.12461,0.0269 0.25938,-0.0217 0.38533,0 0.38515,0.0664 0.76823,0.11833 1.15596,0.16609 0.26213,0.0323 0.51099,0.12132 0.77064,0.16609 0.32939,0.0568 1.68519,0.0583 2.02294,0 0.81106,-0.13985 0.003,-0.001 0.38532,-0.16609 0.4696,-0.20242 0.11875,0.0468 0.67431,-0.16609 0.48094,-0.18428 0.86552,-0.58082 1.34862,-0.7474 0.0597,-0.0206 0.13036,0.0134 0.19266,0 0.20897,-0.045 0.37555,-0.18568 0.57799,-0.24914 0.47141,-0.14778 0.98545,-0.24545 1.44494,-0.41522 0.10642,-0.0393 0.18258,-0.12677 0.28899,-0.16609 0.12169,-0.045 0.27038,-0.0264 0.38533,-0.0831 0.11828,-0.0583 0.17813,-0.18087 0.28899,-0.24913 0.17528,-0.10794 0.40566,-0.13772 0.57798,-0.24914 0.54411,-0.3518 0.97637,-0.75491 1.54128,-1.07958"
       id="path2435-4-1" />
    <path
       style="fill:none;fill-opacity:1;stroke:#000000;stroke-width:0.188928;stroke-dasharray:none;stroke-dashoffset:0;stroke-opacity:1"
       d="m 69.728089,109.81503 26.779799,-3.9031 -0.28898,-3.40483 -27.261461,2.24221 -21.577975,-1.82698 -19.940359,-0.66436 0.09633,5.06572 19.45871,-4.6505"
       id="path3352" />
    <path
       style="fill:none;fill-opacity:1;stroke:#000000;stroke-width:0.208716;stroke-dasharray:0.208716, 0.626149;stroke-dashoffset:0;stroke-opacity:1"
       d="m 10.417181,151.52894 c 0.507835,-0.0526 0.844595,-0.31104 1.332015,-0.43977 0.251077,-0.0663 0.516369,-0.0727 0.777008,-0.17592 0.255317,-0.10115 0.394963,-0.21017 0.666008,-0.26387 0.143582,-0.0285 0.300422,0.0285 0.444004,0 0.323245,-0.064 0.598347,-0.23706 0.88801,-0.35182 0.345514,-0.13688 0.732291,-0.19973 1.110012,-0.26387 0.507279,-0.0861 1.044792,-0.18316 1.554017,-0.26386 0.217692,-0.0345 0.446237,0.0249 0.666008,0 0.231659,-0.0262 0.438983,-0.13094 0.666008,-0.17592 0.425115,-0.0842 0.836143,0.0645 1.221013,-0.088 0.275116,-0.109 2.435379,0 2.775031,0 0.937542,0 1.844349,0.006 2.775031,0.088 0.355204,0.0313 0.493338,-0.0521 0.888009,0 0.265703,0.035 0.514056,0.12961 0.777009,0.17592 0.353153,0.0622 0.754895,-0.0563 1.110012,0 0.477274,0.0756 0.943925,0.29532 1.443016,0.35181 0.146514,0.0166 0.297491,-0.0165 0.444005,0 0.521414,0.059 1.04591,0.25118 1.554019,0.35183 0.682375,0.13518 1.463026,0.18385 2.109023,0.43978 0.619493,0.24543 1.23223,0.5307 1.88702,0.70364 0.175508,0.0464 0.372521,-0.0241 0.555005,0 0.225849,-0.0306 0.359622,0.14495 0.555007,0.17592 0.108846,0.0172 0.227698,-0.0278 0.333003,0 0.12656,0.0334 0.20914,0.13665 0.333005,0.17592 0.17177,0.0545 0.375527,-0.0356 0.555005,0 0.05077,0.01 0.0642,0.0694 0.111002,0.088 0.11928,0.0472 0.315578,-0.0339 0.444004,0 0.804029,0.21237 -0.175005,-0.0254 0.333005,0.17591 0.139988,0.0555 0.528379,-0.0156 0.666008,0 0.286429,-0.0909 0.43654,0.13955 0.666006,0.17592 0.571058,0.0905 1.198497,-0.0653 1.776018,0 0.889608,0.10069 1.762249,0.088 2.664031,0.088 1.74969,0 3.470074,-0.0326 5.217059,-0.088 0.920923,-0.0292 2.177088,0.12293 3.108033,0 0.370545,-0.0489 0.737878,-0.22701 1.110014,-0.26387 0.220287,-0.0218 0.444003,0 0.666006,0 0.074,0 0.16043,0.0325 0.222004,0 0.06884,-0.0364 0.04216,-0.13955 0.110999,-0.17591 0.11179,-0.059 0.856102,-0.025 1.110014,-0.17592 0.608127,-0.3614 1.270771,-0.68924 1.88702,-1.05546 0.233199,-0.1386 0.415511,-0.32069 0.666006,-0.43979 0.283781,-0.13491 0.618712,-0.1994 0.888011,-0.35182 0.12774,-0.0723 0.199885,-0.19795 0.333005,-0.26387 0.168965,-0.0837 0.365978,-0.12599 0.555005,-0.17591 0.0351,-0.009 0.08484,0.0207 0.111002,0 0.02616,-0.0208 -0.03309,-0.0748 0,-0.088 0.06619,-0.0262 0.155813,0.0262 0.222001,0 0.09361,-0.0371 0.1284,-0.13883 0.222003,-0.17591 0.06618,-0.0262 0.153294,0.0218 0.222003,0 0.17177,-0.0545 0.268496,-0.21751 0.444004,-0.26387 0.105305,-0.0278 0.233723,0.0393 0.333004,0 0.0936,-0.0371 0.120474,-0.1558 0.222001,-0.17591 0.215377,-0.0427 0.459884,0.0654 0.66601,0 0.09717,-0.0308 0.124835,-0.14512 0.222001,-0.17592 0.206124,-0.0653 0.450634,0.0427 0.666007,0 0.05077,-0.01 0.06136,-0.0748 0.111002,-0.088 0.422605,-0.11162 2.910739,0 3.552039,0 0.93078,0 1.959172,-0.0918 2.886032,0 0.41516,0.0412 0.952418,0.11347 1.332014,0.26387 0.119324,0.0473 0.20914,0.13665 0.333005,0.17591 0.223124,0.0707 0.664884,0.10519 0.88801,0.17591 0.123866,0.0393 0.204729,0.14688 0.333002,0.17591 0.142309,0.0323 0.301699,-0.0323 0.444007,0 0.128273,0.029 0.213681,0.12864 0.333002,0.17592 0.421037,0.16681 1.002713,0.23552 1.443016,0.35182 0.460092,0.12152 0.880648,0.30565 1.332015,0.43977 0.301258,0.0895 0.595018,0.11788 0.88801,0.17592 0.16053,0.0318 0.283476,0.14411 0.444007,0.17591 0.07179,0.0142 0.153293,-0.0218 0.222,0 0.448131,0.14204 0.848569,0.43197 1.332015,0.52774 0.143583,0.0285 0.301698,-0.0323 0.444006,0 0.128274,0.029 0.205222,0.14553 0.333003,0.17591 0.437915,0.1041 1.410625,0.18838 1.887022,0.26386 0.162258,0.0257 0.281746,0.15021 0.444003,0.17592 0.40807,0.0646 0.914026,0 1.332015,0 1.036012,0 2.072023,0 3.108035,0 0.892604,0 1.892411,0.0999 2.77503,0 0.434772,-0.0492 1.1339,-0.1529 1.554015,-0.26387 0.258032,-0.0681 0.514296,-0.21182 0.777009,-0.26386 1.266435,-0.25088 2.59113,-0.58681 3.774054,-1.05547 0.136453,-0.0541 0.302361,-0.043 0.444007,-0.088 0.477222,-0.15125 0.96569,-0.28848 1.443018,-0.43977 0.221615,-0.0702 0.328338,-0.204 0.555005,-0.26387 0.12902,-0.0341 0.326453,-0.0414 0.444007,-0.088 0.508004,-0.20127 -0.471029,0.0365 0.333,-0.17591 0.181914,-0.048 0.509031,-0.0257 0.666002,-0.0879 0.04681,-0.0186 0.07397,-0.0586 0.111006,-0.088 0.147997,-0.0586 0.290377,-0.12722 0.444007,-0.17591 0.10306,-0.0327 0.22415,0.0173 0.333,0 0.22947,-0.0364 0.44873,-0.10705 0.66601,-0.17592 0.12386,-0.0393 0.20644,-0.14247 0.333,-0.1759 0.14041,-0.0371 0.29802,0.0193 0.44401,0 1.79042,-0.23645 3.60739,-0.36063 5.43906,-0.26387 0.79023,0.0417 1.55248,0.16895 2.33103,0.26387 0.40393,0.0492 0.82206,0.0177 1.22101,0.0879 0.22844,0.0402 0.43577,0.14274 0.666,0.17591 0.18202,0.0262 0.37001,0 0.55502,0 0.25899,0.0293 0.52207,0.0414 0.777,0.088 0.91243,0.16684 0.64159,0.18497 1.55402,0.35182 0.32647,0.0597 0.67396,0.0236 0.99901,0.088 0.16053,0.0318 0.2849,0.13989 0.44401,0.17591 0.10672,0.0242 0.22769,-0.0278 0.333,0 0.21967,0.0581 0.3706,0.19081 0.555,0.26387 0.284,0.11252 0.61109,0.10277 0.88802,0.17591 0.31396,0.0829 0.58559,0.24532 0.888,0.35183 0.40855,0.14388 0.80374,0.3126 1.22102,0.43977 0.25141,0.0766 0.53085,0.0892 0.777,0.17592 0.21397,0.16954 0.18101,0.1805 0.44401,0.26387 0.80453,0.25499 1.50644,0.74971 2.33102,0.96751 0.0703,0.0186 0.15181,-0.0186 0.22201,0 0.20468,0.054 0.3567,0.19653 0.55501,0.26387 0.45578,0.15478 0.30888,0.0383 0.88801,0.1759 0.19085,0.0454 0.3617,0.13763 0.555,0.17592 0.10769,0.0213 0.22352,-0.0144 0.333,0 0.45716,0.0604 0.89385,0.17707 1.33202,0.26387 0.14359,0.0285 0.29888,-0.023 0.44401,0 0.44381,0.0703 0.88523,0.12534 1.33201,0.17592 0.30205,0.0342 0.58882,0.12849 0.88801,0.17591 0.37955,0.0602 1.94184,0.0617 2.33103,0 0.93459,-0.14812 0.004,-0.001 0.444,-0.17591 0.54113,-0.21439 0.13684,0.0496 0.77701,-0.17592 0.55419,-0.19517 0.99734,-0.61517 1.55402,-0.7916 0.0688,-0.0218 0.15021,0.0142 0.222,0 0.2408,-0.0477 0.43274,-0.19667 0.66601,-0.26387 0.54321,-0.15653 1.13554,-0.25998 1.66501,-0.43979 0.12263,-0.0416 0.21039,-0.13427 0.33301,-0.1759 0.14022,-0.0476 0.31155,-0.028 0.444,-0.088 0.1363,-0.0617 0.20527,-0.19157 0.33301,-0.26387 0.20197,-0.11431 0.46744,-0.14586 0.666,-0.26387 0.62699,-0.37261 1.12508,-0.79955 1.77602,-1.14342"
       id="path2435-4-1-0" />
    <ellipse
       style="fill:none;fill-opacity:1;stroke:#000000;stroke-width:0.208388;stroke-opacity:1"
       id="path1515-7-8-8"
       cx="87.222046"
       cy="173.78824"
       rx="5.3835592"
       ry="3.5182369" />
    <path
       style="fill:none;fill-opacity:1;stroke:#000000;stroke-width:0.208715;stroke-dasharray:none;stroke-dashoffset:0;stroke-opacity:1"
       d="m 78.452957,191.81921 1.110013,-21.81307 8.103088,-1.31933 -0.555006,-19.70213 -3.330036,-11.78609 3.996043,-9.85106 -5.883065,-0.17592 2.109023,10.90654"
       id="path3414" />
    <path
       style="fill:none;fill-opacity:1;stroke:#000000;stroke-width:0.188749;stroke-dasharray:0.188749, 0.566248;stroke-dashoffset:0;stroke-opacity:1"
       d="m 22.960763,227.4153 c 0.448987,-0.0486 0.746724,-0.28772 1.177661,-0.40679 0.221983,-0.0614 0.456533,-0.0672 0.686969,-0.16273 0.225731,-0.0936 0.349194,-0.19441 0.588831,-0.24408 0.126944,-0.0263 0.265609,0.0263 0.392553,0 0.285787,-0.0592 0.529011,-0.21929 0.785108,-0.32544 0.305475,-0.12662 0.647433,-0.18475 0.981384,-0.24408 0.448495,-0.0797 0.923721,-0.16943 1.373938,-0.24408 0.192465,-0.0319 0.394526,0.023 0.58883,0 0.204815,-0.0242 0.388114,-0.12112 0.588831,-0.16272 0.375853,-0.0779 0.739251,0.0597 1.079522,-0.0814 0.243237,-0.10083 2.153168,0 2.453461,0 0.8289,0 1.630626,0.006 2.453461,0.0814 0.314043,0.0289 0.43617,-0.0482 0.785107,0 0.234913,0.0324 0.454487,0.11989 0.686969,0.16272 0.312229,0.0575 0.667418,-0.0521 0.981384,0 0.421968,0.07 0.834543,0.27317 1.2758,0.32543 0.129535,0.0154 0.263017,-0.0153 0.392553,0 0.460992,0.0546 0.92471,0.23235 1.373939,0.32544 0.603302,0.12505 1.293492,0.17007 1.86463,0.40681 0.547707,0.22703 1.08944,0.4909 1.668352,0.65088 0.155171,0.0429 0.329353,-0.0223 0.490691,0 0.199679,-0.0283 0.31795,0.13407 0.490694,0.16272 0.09623,0.016 0.201312,-0.0257 0.294414,0 0.111894,0.0309 0.184905,0.1264 0.294417,0.16273 0.151865,0.0504 0.33201,-0.0329 0.490691,0 0.04489,0.009 0.05676,0.0642 0.09814,0.0813 0.105458,0.0437 0.279009,-0.0314 0.392553,0 0.710858,0.19645 -0.154725,-0.0235 0.294416,0.16272 0.123766,0.0513 0.46715,-0.0144 0.588831,0 0.253238,-0.0841 0.385954,0.12909 0.58883,0.16273 0.504884,0.0837 1.059615,-0.0604 1.570213,0 0.78652,0.0931 1.55804,0.0814 2.355324,0.0814 1.546935,0 3.067961,-0.0301 4.612506,-0.0814 0.814206,-0.027 1.924807,0.11371 2.747874,0 0.327607,-0.0453 0.652374,-0.20999 0.981386,-0.24408 0.19476,-0.0202 0.392552,0 0.58883,0 0.06543,0 0.141839,0.0301 0.196278,0 0.06086,-0.0337 0.03727,-0.12909 0.09814,-0.16272 0.09884,-0.0546 0.756897,-0.0232 0.981386,-0.16273 0.537657,-0.3343 1.123514,-0.63755 1.668352,-0.97631 0.206176,-0.1282 0.367362,-0.29665 0.58883,-0.40681 0.250896,-0.1248 0.547016,-0.18445 0.785108,-0.32544 0.112937,-0.0669 0.176722,-0.1831 0.294416,-0.24408 0.149385,-0.0774 0.323569,-0.11654 0.490692,-0.16272 0.03103,-0.009 0.07501,0.0192 0.09814,0 0.02313,-0.0192 -0.02926,-0.0692 0,-0.0814 0.05852,-0.0242 0.137758,0.0243 0.196276,0 0.08276,-0.0343 0.113521,-0.12842 0.196278,-0.16272 0.05851,-0.0242 0.13553,0.0202 0.196276,0 0.151866,-0.0504 0.237383,-0.2012 0.392554,-0.24408 0.0931,-0.0257 0.206638,0.0364 0.294415,0 0.08276,-0.0343 0.106513,-0.14412 0.196276,-0.16272 0.190418,-0.0395 0.406592,0.0604 0.588832,0 0.08591,-0.0285 0.11037,-0.13424 0.196276,-0.16273 0.182238,-0.0604 0.398414,0.0395 0.58883,0 0.04489,-0.009 0.05425,-0.0692 0.09814,-0.0814 0.373634,-0.10326 2.573443,0 3.140429,0 0.822922,0 1.732144,-0.0849 2.551599,0 0.367051,0.0381 0.842053,0.10496 1.177661,0.24407 0.105497,0.0437 0.184904,0.12641 0.294416,0.16273 0.197269,0.0654 0.587836,0.0973 0.785106,0.16272 0.10952,0.0363 0.18101,0.13586 0.29442,0.16272 0.12582,0.0298 0.26674,-0.0298 0.39255,0 0.11341,0.0268 0.18892,0.11899 0.29442,0.16272 0.37224,0.1543 0.88652,0.21786 1.2758,0.32543 0.40677,0.11242 0.7786,0.28274 1.17766,0.4068 0.26635,0.0828 0.52607,0.10904 0.78511,0.16272 0.14192,0.0295 0.25062,0.13331 0.39255,0.16273 0.0635,0.0132 0.13553,-0.0202 0.19628,0 0.3962,0.13139 0.75023,0.39957 1.17766,0.48816 0.12694,0.0263 0.26673,-0.0298 0.39255,0 0.11341,0.0268 0.18144,0.13462 0.29442,0.16272 0.38716,0.0963 1.24716,0.17425 1.66835,0.24408 0.14346,0.0238 0.2491,0.13894 0.39255,0.16272 0.36078,0.0598 0.80811,0 1.17766,0 0.91596,0 1.83192,0 2.74788,0 0.78917,0 1.67312,0.0924 2.45346,0 0.38439,-0.0455 1.00251,-0.14144 1.37393,-0.24408 0.22813,-0.063 0.4547,-0.19594 0.68697,-0.24408 1.11969,-0.23207 2.29087,-0.5428 3.33672,-0.97632 0.12064,-0.05 0.26732,-0.0398 0.39256,-0.0814 0.42192,-0.1399 0.85378,-0.26685 1.275798,-0.40679 0.19593,-0.065 0.29029,-0.1887 0.49069,-0.24408 0.11407,-0.0315 0.28862,-0.0383 0.39255,-0.0814 0.44914,-0.18618 -0.41644,0.0337 0.29442,-0.16272 0.16083,-0.0444 0.45004,-0.0238 0.58882,-0.0814 0.0414,-0.0172 0.0654,-0.0542 0.0981,-0.0814 0.13084,-0.0542 0.25672,-0.11768 0.39255,-0.16272 0.0911,-0.0302 0.19818,0.016 0.29441,0 0.20288,-0.0337 0.39674,-0.099 0.58884,-0.16273 0.10951,-0.0363 0.18251,-0.13179 0.29441,-0.16271 0.12414,-0.0343 0.26348,0.0178 0.39255,0 1.58295,-0.21872 3.18937,-0.33359 4.80879,-0.24409 0.69866,0.0386 1.37258,0.15629 2.0609,0.24409 0.35713,0.0455 0.72681,0.0163 1.07953,0.0814 0.20196,0.0372 0.38527,0.13204 0.58882,0.16272 0.16093,0.0242 0.32714,0 0.4907,0 0.22899,0.0271 0.46158,0.0383 0.68697,0.0814 0.80669,0.15433 0.56724,0.1711 1.37394,0.32544 0.28864,0.0552 0.59586,0.0218 0.88324,0.0814 0.14193,0.0294 0.25189,0.1294 0.39256,0.16272 0.0944,0.0224 0.20131,-0.0258 0.29441,0 0.19421,0.0537 0.32766,0.1765 0.49069,0.24408 0.25109,0.10408 0.54028,0.0951 0.78511,0.16272 0.27758,0.0767 0.51773,0.22693 0.7851,0.32544 0.36121,0.13309 0.71061,0.28917 1.07953,0.4068 0.22228,0.0709 0.46934,0.0825 0.68697,0.16272 0.18917,0.15683 0.16002,0.16697 0.39255,0.24409 0.71131,0.23587 1.33188,0.69348 2.06091,0.89495 0.0621,0.0172 0.13421,-0.0172 0.19627,0 0.18097,0.05 0.31537,0.18179 0.4907,0.24408 0.40297,0.14318 0.27309,0.0354 0.78511,0.16272 0.16873,0.042 0.31978,0.1273 0.49069,0.16272 0.0952,0.0197 0.19761,-0.0134 0.29441,0 0.40418,0.0558 0.79026,0.16379 1.17767,0.24408 0.12694,0.0263 0.26424,-0.0213 0.39255,0 0.39238,0.0651 0.78266,0.11594 1.17766,0.16273 0.26705,0.0317 0.52059,0.11886 0.78511,0.16272 0.33557,0.0556 1.71682,0.0571 2.0609,0 0.82629,-0.13701 0.003,-0.001 0.39256,-0.16272 0.47842,-0.19831 0.12098,0.0459 0.68697,-0.16273 0.48997,-0.18053 0.88177,-0.56903 1.37393,-0.73223 0.0608,-0.0202 0.13281,0.0132 0.19628,0 0.2129,-0.0441 0.3826,-0.18192 0.58884,-0.24409 0.48026,-0.14479 1.00394,-0.24048 1.47207,-0.4068 0.10841,-0.0385 0.186,-0.1242 0.29441,-0.16272 0.12397,-0.044 0.27545,-0.0259 0.39256,-0.0814 0.12049,-0.0571 0.18147,-0.1772 0.29442,-0.24408 0.17856,-0.10574 0.41327,-0.13493 0.58882,-0.24408 0.55433,-0.34467 0.9947,-0.7396 1.57022,-1.05768"
       id="path2435-4-1-0-2" />
    <path
       style="fill:none;fill-opacity:1;stroke:#000000;stroke-width:0.188749;stroke-dasharray:none;stroke-dashoffset:0;stroke-opacity:1"
       d="m 76.831704,243.20515 0.58883,9.35641 4.612508,0.16271 v -15.45841 l -2.25718,-9.68186 3.72926,-9.51914 -3.72926,-0.32544 v 9.35642"
       id="path3438" />
    <ellipse
       style="fill:none;fill-opacity:1;stroke:#000000;stroke-width:0.188452;stroke-opacity:1"
       id="path1515-7-8-8-5"
       cx="80.266541"
       cy="255.97867"
       rx="4.7597132"
       ry="3.254405" />
    <text
       xml:space="preserve"
       style="font-style:normal;font-variant:normal;font-weight:normal;font-stretch:normal;font-size:4.93889px;font-family:Arial;-inkscape-font-specification:Arial;fill:none;fill-opacity:1;stroke:#000000;stroke-width:0.264583;stroke-miterlimit:3.7;stroke-dasharray:none;stroke-dashoffset:0;stroke-opacity:1"
       x="16.309076"
       y="9.9109001"
       id="text4264"><tspan
         sodipodi:role="line"
         id="tspan4262"
         style="font-style:italic;font-variant:normal;font-weight:normal;font-stretch:normal;font-size:4.23333px;font-family:Arial;-inkscape-font-specification:'Arial, Italic';font-variant-ligatures:normal;font-variant-caps:normal;font-variant-numeric:normal;font-variant-east-asian:normal;fill:#000000;fill-opacity:1;stroke-width:0.264583;stroke-linejoin:bevel;stroke-miterlimit:3.7;stroke-dasharray:none"
         x="16.309076"
         y="9.9109001">Départ droit, bras tendus</tspan></text>
    <text
       xml:space="preserve"
       style="font-style:normal;font-variant:normal;font-weight:normal;font-stretch:normal;font-size:4.9389px;font-family:Arial;-inkscape-font-specification:Arial;fill:none;fill-opacity:1;stroke:#000000;stroke-width:0.264999;stroke-dasharray:none;stroke-dashoffset:0;stroke-opacity:1"
       x="93.338089"
       y="7.7781744"
       id="text4318"><tspan
         sodipodi:role="line"
         id="tspan4316"
         style="stroke-width:0.265"
         x="93.338089"
         y="7.7781744" /></text>
    <text
       xml:space="preserve"
       style="font-style:italic;font-variant:normal;font-weight:normal;font-stretch:normal;font-size:4.23333px;font-family:Arial;-inkscape-font-specification:'Arial, Italic';font-variant-ligatures:normal;font-variant-caps:normal;font-variant-numeric:normal;font-variant-east-asian:normal;fill:#000000;fill-opacity:1;stroke:#000000;stroke-width:0.264583;stroke-linejoin:bevel;stroke-miterlimit:3.7;stroke-dasharray:none;stroke-dashoffset:0;stroke-opacity:1"
       x="12.921805"
       y="43.658142"
       id="text4322"><tspan
         sodipodi:role="line"
         id="tspan4320"
         style="stroke-width:0.264583"
         x="12.921805"
         y="43.658142">On casse au niveau du bassin...</tspan></text>
    <text
       xml:space="preserve"
       style="font-style:italic;font-variant:normal;font-weight:normal;font-stretch:normal;font-size:4.23333px;font-family:Arial;-inkscape-font-specification:'Arial, Italic';font-variant-ligatures:normal;font-variant-caps:normal;font-variant-numeric:normal;font-variant-east-asian:normal;fill:#000000;fill-opacity:1;stroke:#000000;stroke-width:0.264583;stroke-linejoin:bevel;stroke-miterlimit:3.7;stroke-dasharray:none;stroke-dashoffset:0;stroke-opacity:1"
       x="14.17635"
       y="89.825371"
       id="text4326"><tspan
         sodipodi:role="line"
         id="tspan4324"
         style="stroke-width:0.264583"
         x="14.17635"
         y="89.825371">et on ramène ses mains sur ses genoux</tspan></text>
    <text
       xml:space="preserve"
       style="font-style:italic;font-variant:normal;font-weight:normal;font-stretch:normal;font-size:4.23333px;font-family:Arial;-inkscape-font-specification:'Arial, Italic';font-variant-ligatures:normal;font-variant-caps:normal;font-variant-numeric:normal;font-variant-east-asian:normal;fill:#000000;fill-opacity:1;stroke:#000000;stroke-width:0.264583;stroke-linejoin:bevel;stroke-miterlimit:3.7;stroke-dasharray:none;stroke-dashoffset:0;stroke-opacity:1"
       x="13.172715"
       y="139.75623"
       id="text4330"><tspan
         sodipodi:role="line"
         id="tspan4328"
         style="stroke-width:0.264583"
         x="13.172715"
         y="139.75623">On se remet droit, bien vertical</tspan></text>
    <text
       xml:space="preserve"
       style="font-style:italic;font-variant:normal;font-weight:normal;font-stretch:normal;font-size:4.23333px;font-family:Arial;-inkscape-font-specification:'Arial, Italic';font-variant-ligatures:normal;font-variant-caps:normal;font-variant-numeric:normal;font-variant-east-asian:normal;fill:#000000;fill-opacity:1;stroke:#000000;stroke-width:0.264583;stroke-linejoin:bevel;stroke-miterlimit:3.7;stroke-dasharray:none;stroke-dashoffset:0;stroke-opacity:1"
       x="15.179986"
       y="208.63071"
       id="text4334"><tspan
         sodipodi:role="line"
         id="tspan4332"
         style="stroke-width:0.264583"
         x="15.179986"
         y="208.63071">On utilise les mains pour chasser l'eau</tspan></text>
    <text
       xml:space="preserve"
       style="font-style:italic;font-variant:normal;font-weight:normal;font-stretch:normal;font-size:4.23333px;font-family:Arial;-inkscape-font-specification:'Arial, Italic';font-variant-ligatures:normal;font-variant-caps:normal;font-variant-numeric:normal;font-variant-east-asian:normal;fill:#000000;fill-opacity:1;stroke:#000000;stroke-width:0.264583;stroke-linejoin:bevel;stroke-miterlimit:3.7;stroke-dasharray:none;stroke-dashoffset:0;stroke-opacity:1"
       x="17.312712"
       y="272.86337"
       id="text4338"><tspan
         sodipodi:role="line"
         id="tspan4336"
         style="stroke-width:0.264583"
         x="17.312712"
         y="272.86337">* les palmes ne sont pas utilisées </tspan></text>
    <text
       xml:space="preserve"
       style="font-style:italic;font-variant:normal;font-weight:normal;font-stretch:normal;font-size:4.23333px;font-family:Arial;-inkscape-font-specification:'Arial, Italic';font-variant-ligatures:normal;font-variant-caps:normal;font-variant-numeric:normal;font-variant-east-asian:normal;fill:#000000;fill-opacity:1;stroke:#000000;stroke-width:0.264583;stroke-linejoin:bevel;stroke-miterlimit:3.7;stroke-dasharray:none;stroke-dashoffset:0;stroke-opacity:1"
       x="124.9526"
       y="8.530901"
       id="text4378"><tspan
         sodipodi:role="line"
         id="tspan4376"
         style="stroke-width:0.264583"
         x="124.9526"
         y="8.530901">LE CANARD</tspan></text>
  </g>
</svg>
